<svg width="1269" height="662" viewBox="0 0 1269 662" fill="none" xmlns="http://www.w3.org/2000/svg">
<path d="M1241.54 206.525H1231.08V206.525C1228.91 206.525 1227.16 208.281 1227.16 210.447V455.055C1227.16 458.034 1224.74 460.448 1221.76 460.448V460.448C1218.78 460.448 1216.37 458.034 1216.37 455.055V298.796C1216.37 293.273 1211.89 288.796 1206.37 288.796H1196.95C1191.43 288.796 1186.95 293.273 1186.95 298.796V308.59C1186.95 314.113 1182.47 318.59 1176.95 318.59H1113.82C1109.61 318.59 1106.2 322 1106.2 326.207V330.556C1106.2 332.362 1104.74 333.825 1102.94 333.825V333.825C1101.13 333.825 1099.67 335.289 1099.67 337.094V391.836C1099.67 396.26 1096.08 399.845 1091.66 399.845V399.845C1087.23 399.845 1083.65 403.431 1083.65 407.854V444.354C1083.65 449.877 1079.17 454.354 1073.65 454.354H1073.38C1067.86 454.354 1063.38 458.831 1063.38 464.354V517.456C1063.38 519.442 1061.77 521.052 1059.78 521.052V521.052C1057.8 521.052 1056.19 519.442 1056.19 517.456V210.144C1056.19 208.519 1054.87 207.202 1053.25 207.202V207.202C1051.62 207.202 1050.3 205.885 1050.3 204.26V177.058C1050.3 174.26 1048.04 171.991 1045.24 171.991V171.991C1042.44 171.991 1040.17 169.723 1040.17 166.924V140.551C1040.17 138.656 1038.63 137.119 1036.74 137.119V137.119C1034.84 137.119 1033.31 135.582 1033.31 133.686V112.247C1033.31 106.724 1028.83 102.247 1023.31 102.247H999.501C993.978 102.247 989.501 106.724 989.501 112.247V133.686C989.501 135.582 987.964 137.119 986.068 137.119V137.119C984.173 137.119 982.636 138.656 982.636 140.551V166.924C982.636 169.723 980.367 171.991 977.569 171.991V171.991C974.771 171.991 972.502 174.26 972.502 177.058V204.412C972.502 205.766 971.404 206.863 970.05 206.863V206.863C968.696 206.863 967.599 207.961 967.599 209.315V418.84C967.599 421.999 965.037 424.561 961.878 424.561V424.561C958.718 424.561 956.157 427.122 956.157 430.281V514.023C956.157 517.905 953.01 521.052 949.129 521.052H942.778C942.404 521.052 942.101 520.748 942.101 520.374V520.374C942.101 520 941.797 519.697 941.423 519.697H939.363C938.708 519.697 938.178 519.167 938.178 518.512V518.512C938.178 517.858 938.708 517.327 939.363 517.327H940.408C941.343 517.327 942.101 516.569 942.101 515.635V515.635C942.101 514.7 941.343 513.942 940.408 513.942H939.532C938.784 513.942 938.178 513.335 938.178 512.587V512.587C938.178 511.84 938.784 511.233 939.532 511.233H940.408C941.343 511.233 942.101 510.475 942.101 509.54V509.54C942.101 508.605 941.343 507.848 940.408 507.848H939.363C938.708 507.848 938.178 507.317 938.178 506.663V506.663C938.178 506.008 938.708 505.478 939.363 505.478H940.408C941.343 505.478 942.101 504.72 942.101 503.785V503.785C942.101 502.85 941.343 502.092 940.408 502.092H939.363C938.708 502.092 938.178 501.561 938.178 500.907V500.907C938.178 500.253 938.708 499.722 939.363 499.722H940.408C941.343 499.722 942.101 498.964 942.101 498.029V498.029C942.101 497.094 941.343 496.336 940.408 496.336H939.363C938.708 496.336 938.178 495.806 938.178 495.151V495.151C938.178 494.497 938.708 493.966 939.363 493.966H940.408C941.343 493.966 942.101 493.208 942.101 492.274V492.274C942.101 491.339 941.343 490.581 940.408 490.581H939.363C938.708 490.581 938.178 490.05 938.178 489.396V489.396C938.178 488.741 938.708 488.211 939.363 488.211H940.408C941.343 488.211 942.101 487.453 942.101 486.518V486.518C942.101 485.583 941.343 484.825 940.408 484.825H939.363C938.708 484.825 938.178 484.295 938.178 483.64V483.64C938.178 482.986 938.708 482.455 939.363 482.455H940.408C941.343 482.455 942.101 481.697 942.101 480.762V480.762C942.101 479.827 941.343 479.07 940.408 479.07H939.363C938.708 479.07 938.178 478.539 938.178 477.885V477.885C938.178 477.23 938.708 476.7 939.363 476.7H940.408C941.343 476.7 942.101 475.942 942.101 475.007V475.007C942.101 474.072 941.343 473.314 940.408 473.314H939.363C938.708 473.314 938.178 472.783 938.178 472.129V472.129C938.178 471.475 938.708 470.944 939.363 470.944H940.408C941.343 470.944 942.101 470.186 942.101 469.251V469.251C942.101 468.316 941.343 467.558 940.408 467.558H939.363C938.708 467.558 938.178 467.028 938.178 466.373V466.373C938.178 465.719 938.708 465.188 939.363 465.188H940.408C941.343 465.188 942.101 464.43 942.101 463.496V463.496C942.101 462.561 941.343 461.803 940.408 461.803H940.139C939.056 461.803 938.178 460.925 938.178 459.841V459.024C938.178 457.941 939.056 457.063 940.139 457.063H940.408C941.343 457.063 942.101 456.305 942.101 455.37V455.37C942.101 454.435 941.343 453.677 940.408 453.677H939.363C938.708 453.677 938.178 453.147 938.178 452.492V452.492C938.178 451.838 938.708 451.307 939.363 451.307H940.408C941.343 451.307 942.101 450.549 942.101 449.614V449.614C942.101 448.679 941.343 447.922 940.408 447.922H939.363C938.708 447.922 938.178 447.391 938.178 446.737V446.737C938.178 446.082 938.708 445.552 939.363 445.552H940.408C941.343 445.552 942.101 444.794 942.101 443.859V443.859C942.101 442.924 941.343 442.166 940.408 442.166H939.363C938.708 442.166 938.178 441.635 938.178 440.981V440.981C938.178 440.327 938.708 439.796 939.363 439.796H940.408C941.343 439.796 942.101 439.038 942.101 438.103V438.103C942.101 437.168 941.343 436.41 940.408 436.41H939.363C938.708 436.41 938.178 435.88 938.178 435.225V435.225C938.178 434.571 938.708 434.04 939.363 434.04H940.408C941.343 434.04 942.101 433.282 942.101 432.348V432.348C942.101 431.413 941.343 430.655 940.408 430.655H939.363C938.708 430.655 938.178 430.124 938.178 429.47V429.47C938.178 428.815 938.708 428.285 939.363 428.285H940.408C941.343 428.285 942.101 427.527 942.101 426.592V426.592C942.101 425.657 941.343 424.899 940.408 424.899H939.363C938.708 424.899 938.178 424.369 938.178 423.714V423.714C938.178 423.06 938.708 422.529 939.363 422.529H940.408C941.343 422.529 942.101 421.771 942.101 420.836V420.836C942.101 419.901 941.343 419.144 940.408 419.144H939.363C938.708 419.144 938.178 418.613 938.178 417.959V417.959C938.178 417.304 938.708 416.774 939.363 416.774H940.408C941.343 416.774 942.101 416.016 942.101 415.081V415.081C942.101 414.146 941.343 413.388 940.408 413.388H939.363C938.708 413.388 938.178 412.857 938.178 412.203V412.203C938.178 411.549 938.708 411.018 939.363 411.018H940.408C941.343 411.018 942.101 410.26 942.101 409.325V409.325C942.101 408.39 941.343 407.632 940.408 407.632H939.363C938.708 407.632 938.178 407.102 938.178 406.447V406.447C938.178 405.793 938.708 405.262 939.363 405.262H940.408C941.343 405.262 942.101 404.504 942.101 403.57V403.57C942.101 402.635 941.343 401.877 940.408 401.877H939.363C938.708 401.877 938.178 401.346 938.178 400.692V400.692C938.178 400.037 938.708 399.507 939.363 399.507H940.408C941.343 399.507 942.101 398.749 942.101 397.814V397.814C942.101 396.879 941.343 396.121 940.408 396.121H939.363C938.708 396.121 938.178 395.591 938.178 394.936V394.936C938.178 394.282 938.708 393.751 939.363 393.751H940.408C941.343 393.751 942.101 392.993 942.101 392.058V392.058C942.101 391.123 941.343 390.366 940.408 390.366H939.363C938.708 390.366 938.178 389.835 938.178 389.181V389.181C938.178 388.526 938.708 387.996 939.363 387.996H940.408C941.343 387.996 942.101 387.238 942.101 386.303V386.303C942.101 385.368 941.343 384.61 940.408 384.61H940.139C939.056 384.61 938.178 383.732 938.178 382.648V381.154C938.178 380.071 939.056 379.193 940.139 379.193H940.408C941.343 379.193 942.101 378.435 942.101 377.5V377.5C942.101 376.565 941.343 375.807 940.408 375.807H939.363C938.708 375.807 938.178 375.277 938.178 374.622V374.622C938.178 373.968 938.708 373.437 939.363 373.437H940.408C941.343 373.437 942.101 372.679 942.101 371.744V371.744C942.101 370.81 941.343 370.052 940.408 370.052H939.363C938.708 370.052 938.178 369.521 938.178 368.867V368.867C938.178 368.212 938.708 367.682 939.363 367.682H940.408C941.343 367.682 942.101 366.924 942.101 365.989V365.989C942.101 365.054 941.343 364.296 940.408 364.296H939.363C938.708 364.296 938.178 363.765 938.178 363.111V363.111C938.178 362.457 938.708 361.926 939.363 361.926H940.408C941.343 361.926 942.101 361.168 942.101 360.233V360.233C942.101 359.298 941.343 358.54 940.408 358.54H940.139C939.056 358.54 938.178 357.662 938.178 356.579V354.256C938.178 353.443 937.519 352.785 936.707 352.785V352.785C935.894 352.785 935.235 352.126 935.235 351.314V349.061C935.235 347.004 933.568 345.336 931.511 345.336H931.313C929.146 345.336 927.39 343.58 927.39 341.414V330.334C927.39 328.71 926.073 327.392 924.448 327.392V327.392C922.823 327.392 921.506 326.075 921.506 324.45V312.701C921.506 308.027 918.269 303.977 913.71 302.947L903.526 300.646V300.646C901.034 300.05 899.277 297.823 899.277 295.261V263.532C899.277 262.9 898.764 262.388 898.133 262.388V262.388C897.501 262.388 896.988 262.9 896.988 263.532V295.597C896.988 297.484 895.229 298.877 893.392 298.445V298.445C891.556 298.013 889.797 299.406 889.797 301.293V324.941C889.797 326.295 888.699 327.392 887.345 327.392V327.392C885.991 327.392 884.893 328.49 884.893 329.844V341.413C884.893 343.58 883.137 345.336 880.97 345.336H880.264C878.487 345.336 877.047 346.776 877.047 348.553V350.298C877.047 351.111 876.389 351.769 875.576 351.769V351.769C874.764 351.769 874.105 352.428 874.105 353.24V354.647C874.105 356.236 872.817 357.525 871.228 357.525H842.916C837.393 357.525 832.916 362.002 832.916 367.525V385.105C832.916 390.628 828.439 395.105 822.916 395.105H799.552C798.27 395.105 797 395.352 795.811 395.831L766.555 407.632V407.632C765.566 408.042 764.921 409.008 764.921 410.079V421.945C764.921 423.39 766.092 424.561 767.536 424.561H768.12C769.242 424.561 770.151 425.47 770.151 426.592V426.592C770.151 427.714 769.242 428.623 768.12 428.623H766.952C765.83 428.623 764.921 429.533 764.921 430.655V430.655C764.921 431.777 765.83 432.686 766.952 432.686H768.12C769.242 432.686 770.151 433.596 770.151 434.718V434.718C770.151 435.839 769.242 436.749 768.12 436.749H766.952C765.83 436.749 764.921 437.658 764.921 438.78V438.78C764.921 439.902 765.83 440.812 766.952 440.812H768.12C769.242 440.812 770.151 441.721 770.151 442.843V442.843C770.151 443.965 769.242 444.874 768.12 444.874H766.952C765.83 444.874 764.921 445.784 764.921 446.906V446.906C764.921 448.028 765.83 448.937 766.952 448.937H768.12C769.242 448.937 770.151 449.847 770.151 450.969V450.969C770.151 452.091 769.242 453 768.12 453H766.952C765.83 453 764.921 453.91 764.921 455.031V455.031C764.921 456.153 765.83 457.063 766.952 457.063H768.628C769.469 457.063 770.151 457.745 770.151 458.586V458.586C770.151 459.428 769.469 460.11 768.628 460.11H739.273C735.049 460.11 731.281 457.456 729.858 453.48L722.125 431.874C720.8 428.174 715.565 428.18 714.25 431.883V431.883C712.657 436.368 705.735 435.124 705.745 430.365C705.752 426.963 705.752 423.561 705.752 420.159C705.752 415.419 705.752 410.679 705.752 405.939C705.752 392.397 705.752 378.854 705.425 365.312C705.425 359.556 705.098 353.462 705.098 347.706C704.771 335.179 704.444 322.652 703.791 309.787C703.464 303.693 703.464 297.599 703.137 291.504C702.483 279.655 702.156 268.144 701.502 256.294C701.502 254.939 701.175 253.585 701.175 252.231C700.522 241.735 699.868 231.578 699.214 221.083C697.907 202.123 696.272 183.164 694.638 164.204C694.519 162.483 694.357 160.718 694.183 158.94C693.673 153.709 689.252 149.646 683.996 149.646H623.369C618.521 149.646 614.22 153.262 614.22 158.11V158.11C613.893 162.173 613.566 166.235 613.239 170.298C612.913 173.684 612.586 177.408 612.259 180.794C611.605 187.226 611.278 193.659 610.624 200.092C610.297 203.139 610.297 205.848 609.97 208.895C609.644 214.312 609.317 219.729 608.663 225.146C608.336 227.516 608.336 229.886 608.336 231.917C608.009 239.027 607.355 246.137 607.028 252.908C607.028 255.278 606.701 257.648 606.701 260.018C606.375 267.466 606.048 274.576 605.721 282.025C605.721 283.718 605.394 285.072 605.394 286.765C605.067 293.536 604.74 300.646 604.413 307.417C604.413 308.771 604.413 310.126 604.413 311.48C604.086 319.267 603.759 327.054 603.759 334.841C603.759 336.534 603.759 337.888 603.759 339.581C603.433 347.706 603.433 355.832 603.106 363.619V364.635C603.106 372.76 602.779 380.886 602.779 388.673C602.779 389.688 602.779 390.704 602.779 391.72C602.779 399.845 602.779 407.971 602.779 416.096C602.779 417.112 602.779 418.466 602.779 419.482C602.779 421.976 602.779 424.469 602.779 427.012C602.779 430.894 599.632 434.04 595.75 434.04V434.04C591.869 434.04 588.722 437.187 588.722 441.069V522.873C588.722 527.476 584.99 531.208 580.386 531.208H572.897C572.429 531.208 572.05 530.83 572.05 530.362V530.362C572.05 529.895 572.429 529.516 572.897 529.516H573.521C574.334 529.516 574.992 528.857 574.992 528.045V527.263C574.992 526.45 574.334 525.792 573.521 525.792V525.792C572.709 525.792 572.05 525.133 572.05 524.32V522.861C572.05 522.049 572.709 521.39 573.521 521.39V521.39C574.334 521.39 574.992 520.732 574.992 519.919V519.137C574.992 518.325 574.334 517.666 573.521 517.666V517.666C572.709 517.666 572.05 517.007 572.05 516.195V514.397C572.05 513.585 572.709 512.926 573.521 512.926V512.926C574.334 512.926 574.992 512.267 574.992 511.455V510.673C574.992 509.86 574.334 509.202 573.521 509.202V509.202C572.709 509.202 572.05 508.543 572.05 507.731V505.933C572.05 505.121 572.709 504.462 573.521 504.462V504.462C574.334 504.462 574.992 503.803 574.992 502.991V502.209C574.992 501.396 574.334 500.738 573.521 500.738V500.738C572.709 500.738 572.05 500.079 572.05 499.267V497.469C572.05 496.656 572.709 495.998 573.521 495.998V495.998C574.334 495.998 574.992 495.339 574.992 494.527V493.745C574.992 492.932 574.334 492.274 573.521 492.274V492.274C572.709 492.274 572.05 491.615 572.05 490.802V489.005C572.05 488.192 572.709 487.534 573.521 487.534V487.534C574.334 487.534 574.992 486.875 574.992 486.063V485.28C574.992 484.468 574.334 483.809 573.521 483.809V483.809C572.709 483.809 572.05 483.151 572.05 482.338V480.541C572.05 479.728 572.709 479.07 573.521 479.07V479.07C574.334 479.07 574.992 478.411 574.992 477.598V476.816C574.992 476.004 574.334 475.345 573.521 475.345V475.345C572.709 475.345 572.05 474.687 572.05 473.874V472.076C572.05 471.264 572.709 470.605 573.521 470.605V470.605C574.334 470.605 574.992 469.947 574.992 469.134V468.352C574.992 467.54 574.334 466.881 573.521 466.881V466.881C572.709 466.881 572.05 466.223 572.05 465.41V463.612C572.05 462.8 572.709 462.141 573.521 462.141V462.141C574.334 462.141 574.992 461.483 574.992 460.67V459.888C574.992 459.076 574.334 458.417 573.521 458.417V458.417C572.709 458.417 572.05 457.758 572.05 456.946V455.148C572.05 454.336 572.709 453.677 573.521 453.677V453.677C574.334 453.677 574.992 453.019 574.992 452.206V451.424C574.992 450.612 574.334 449.953 573.521 449.953V449.953C572.709 449.953 572.05 449.294 572.05 448.482V446.684C572.05 445.872 572.709 445.213 573.521 445.213V445.213C574.334 445.213 574.992 444.554 574.992 443.742V441.606C574.992 440.793 574.334 440.135 573.521 440.135V440.135C572.709 440.135 572.05 439.476 572.05 438.663V436.866C572.05 436.053 572.709 435.395 573.521 435.395V435.395C574.334 435.395 574.992 434.736 574.992 433.924V433.142C574.992 432.329 574.334 431.67 573.521 431.67V431.67C572.709 431.67 572.05 431.012 572.05 430.199V428.063C572.05 427.251 572.709 426.592 573.521 426.592V426.592C574.334 426.592 574.992 425.933 574.992 425.121V424.339C574.992 423.526 574.334 422.868 573.521 422.868V422.868C572.709 422.868 572.05 422.209 572.05 421.397V419.599C572.05 418.786 572.709 418.128 573.521 418.128V418.128C574.334 418.128 574.992 417.469 574.992 416.657V415.875C574.992 415.062 574.334 414.404 573.521 414.404V414.404C572.709 414.404 572.05 413.745 572.05 412.933V411.135C572.05 410.322 572.709 409.664 573.521 409.664V409.664C574.334 409.664 574.992 409.005 574.992 408.193V407.411C574.992 406.598 574.334 405.939 573.521 405.939V405.939C572.709 405.939 572.05 405.281 572.05 404.468V402.671C572.05 401.858 572.709 401.2 573.521 401.2V401.2C574.334 401.2 574.992 400.541 574.992 399.729V398.946C574.992 398.134 574.334 397.475 573.521 397.475V397.475C572.709 397.475 572.05 396.817 572.05 396.004V394.207C572.05 393.394 572.709 392.735 573.521 392.735V392.735C574.334 392.735 574.992 392.077 574.992 391.264V390.482C574.992 389.67 574.334 389.011 573.521 389.011V389.011C572.709 389.011 572.05 388.353 572.05 387.54V385.742C572.05 384.93 572.709 384.271 573.521 384.271V384.271C574.334 384.271 574.992 383.613 574.992 382.8V382.018C574.992 381.206 574.334 380.547 573.521 380.547V380.547C572.709 380.547 572.05 379.888 572.05 379.076V377.278C572.05 376.466 572.709 375.807 573.521 375.807V375.807C574.334 375.807 574.992 375.149 574.992 374.336V373.554C574.992 372.742 574.334 372.083 573.521 372.083V372.083C572.709 372.083 572.05 371.424 572.05 370.612V368.814C572.05 368.002 572.709 367.343 573.521 367.343V367.343C574.334 367.343 574.992 366.684 574.992 365.872V363.736C574.992 362.923 574.334 362.265 573.521 362.265V362.265C572.709 362.265 572.05 361.606 572.05 360.794V358.996C572.05 358.183 572.709 357.525 573.521 357.525V357.525C574.334 357.525 574.992 356.866 574.992 356.054V355.272C574.992 354.459 574.334 353.8 573.521 353.8V353.8C572.709 353.8 572.05 353.142 572.05 352.329V350.532C572.05 349.719 572.709 349.061 573.521 349.061V349.061C574.334 349.061 574.992 348.402 574.992 347.589V346.807C574.992 345.995 574.334 345.336 573.521 345.336V345.336C572.709 345.336 572.05 344.678 572.05 343.865V342.068C572.05 341.255 572.709 340.596 573.521 340.596V340.596C574.334 340.596 574.992 339.938 574.992 339.125V338.343C574.992 337.531 574.334 336.872 573.521 336.872V336.872C572.709 336.872 572.05 336.214 572.05 335.401V329.879C572.05 329.067 572.709 328.408 573.521 328.408V328.408C574.334 328.408 574.992 327.749 574.992 326.937V325.869C574.992 324.466 573.855 323.33 572.453 323.33H567.882C566.573 323.33 565.512 322.269 565.512 320.96V320.364C565.512 319.384 566.307 318.59 567.287 318.59V318.59C568.732 318.59 569.571 316.955 568.729 315.781L556.922 299.309C555.543 297.386 553.321 296.244 550.953 296.244V296.244C546.898 296.244 543.61 292.957 543.61 288.901V288.796V288.796C543.61 288.057 542.956 287.181 542.956 286.443V266.918C542.956 266.286 542.444 265.774 541.812 265.774V265.774C541.18 265.774 540.668 266.286 540.668 266.918V286.494C540.668 287.204 540.014 288.085 540.014 288.796V288.796V288.901C540.014 292.957 536.726 296.244 532.671 296.244V296.244C530.303 296.244 528.081 297.386 526.702 299.31L514.266 316.659C513.687 317.466 514.264 318.59 515.257 318.59V318.59C515.931 318.59 516.477 319.136 516.477 319.81V320.96C516.477 322.269 515.416 323.33 514.107 323.33H509.536C508.134 323.33 506.997 324.466 506.997 325.869V326.61C506.997 327.603 507.802 328.408 508.795 328.408V328.408C509.788 328.408 510.593 329.213 510.593 330.206V335.074C510.593 336.067 509.788 336.872 508.795 336.872V336.872C507.802 336.872 506.997 337.677 506.997 338.67V338.798C506.997 339.791 507.802 340.596 508.795 340.596V340.596C509.788 340.596 510.593 341.401 510.593 342.394V343.538C510.593 344.531 509.788 345.336 508.795 345.336V345.336C507.802 345.336 506.997 346.141 506.997 347.134V347.263C506.997 348.256 507.802 349.061 508.795 349.061V349.061C509.788 349.061 510.593 349.866 510.593 350.859V352.003C510.593 352.995 509.788 353.8 508.795 353.8V353.8C507.802 353.8 506.997 354.605 506.997 355.598V355.727C506.997 356.72 507.802 357.525 508.795 357.525V357.525C509.788 357.525 510.593 358.33 510.593 359.323V360.467C510.593 361.46 509.788 362.265 508.795 362.265V362.265C507.802 362.265 506.997 363.07 506.997 364.063V364.191C506.997 365.184 507.802 365.989 508.795 365.989V365.989C509.788 365.989 510.593 366.794 510.593 367.787V368.931C510.593 369.924 509.788 370.729 508.795 370.729V370.729C507.802 370.729 506.997 371.534 506.997 372.527V372.655C506.997 373.648 507.802 374.453 508.795 374.453V374.453C509.788 374.453 510.593 375.258 510.593 376.251V377.395C510.593 378.388 509.788 379.193 508.795 379.193V379.193C507.802 379.193 506.997 379.998 506.997 380.991V381.119C506.997 382.112 507.802 382.917 508.795 382.917V382.917C509.788 382.917 510.593 383.722 510.593 384.715V385.859C510.593 386.852 509.788 387.657 508.795 387.657V387.657C507.802 387.657 506.997 388.462 506.997 389.455V389.583C506.997 390.576 507.802 391.381 508.795 391.381V391.381C509.788 391.381 510.593 392.186 510.593 393.179V394.323C510.593 395.316 509.788 396.121 508.795 396.121V396.121C507.802 396.121 506.997 396.926 506.997 397.919V398.047C506.997 399.04 507.802 399.845 508.795 399.845V399.845C509.788 399.845 510.593 400.65 510.593 401.643V402.787C510.593 403.78 509.788 404.585 508.795 404.585V404.585C507.802 404.585 506.997 405.39 506.997 406.383V406.511C506.997 407.504 507.802 408.309 508.795 408.309V408.309C509.788 408.309 510.593 409.114 510.593 410.107V411.251C510.593 412.244 509.788 413.049 508.795 413.049V413.049C507.802 413.049 506.997 413.854 506.997 414.847V414.976C506.997 415.969 507.802 416.774 508.795 416.774V416.774C509.788 416.774 510.593 417.579 510.593 418.572V419.716C510.593 420.709 509.788 421.513 508.795 421.513V421.513C507.802 421.513 506.997 422.318 506.997 423.311V423.44C506.997 424.433 507.802 425.238 508.795 425.238V425.238C509.788 425.238 510.593 426.043 510.593 427.036V428.18C510.593 429.173 509.788 429.978 508.795 429.978V429.978C507.802 429.978 506.997 430.783 506.997 431.776V431.904C506.997 432.897 507.802 433.702 508.795 433.702V433.702C509.788 433.702 510.593 434.507 510.593 435.5V436.644C510.593 437.637 509.788 438.442 508.795 438.442V438.442C507.802 438.442 506.997 439.247 506.997 440.24V440.368C506.997 441.361 507.802 442.166 508.795 442.166V442.166C509.788 442.166 510.593 442.971 510.593 443.964V445.108C510.593 446.101 509.788 446.906 508.795 446.906V446.906C507.802 446.906 506.997 447.711 506.997 448.704V448.832C506.997 449.825 507.802 450.63 508.795 450.63H510.085C510.366 450.63 510.593 450.857 510.593 451.138V451.138C510.593 451.418 510.366 451.646 510.085 451.646H493.092C490.661 451.646 488.691 449.675 488.691 447.244V447.244V443.52V438.78V435.056V430.316V426.592V421.852V418.128V413.388V409.664V404.924V401.2V396.46V392.735V387.996V384.271V379.531V375.807V371.067V367.343V362.603V358.879V354.139V350.415V346.013V342.289V337.549V333.825V329.085V325.361V320.621V316.897V312.496V308.771V304.031V300.307V295.567V291.843V287.103V283.379V278.639V274.915V270.175V266.451V261.711V257.987V253.247V249.522V244.783V241.058V236.318V232.594V227.854V224.13V219.39V215.666V210.926L488.521 203.561C488.427 199.43 485.801 195.783 481.913 194.383L472.543 191.007C469.264 189.826 465.808 192.255 465.808 195.739V197.37C465.808 199.247 464.286 200.769 462.409 200.769V200.769C460.506 200.769 458.973 199.207 459.01 197.304L459.443 175.147C459.533 170.518 456.434 166.432 451.951 165.272L431.967 160.097C425.927 158.533 419.946 162.82 419.487 169.042L416.446 210.249L416.119 214.989L415.792 218.713L415.465 223.453L415.138 227.177L414.811 231.917L414.485 235.641L414.158 240.381L413.831 244.105L413.504 248.845L413.177 252.57L412.85 257.309L412.523 261.034L412.196 265.774L411.869 269.498L411.542 274.238L411.216 277.962L410.889 282.702L410.562 286.426L410.235 291.166L409.908 294.89L409.581 299.63L409.254 303.354L409.23 303.703C409.037 306.501 407.678 309.089 405.485 310.837L403.846 312.143C401.667 313.879 400.307 316.488 400.101 319.267V319.267L399.774 322.991L399.447 327.731L399.12 331.455L398.793 336.195L398.467 339.919L398.14 344.659L397.813 348.383L397.486 352.785V352.785C397.486 353.72 396.728 354.478 395.793 354.478H369.239C363.716 354.478 359.239 358.955 359.239 364.478V403.242C359.239 406.041 356.97 408.309 354.172 408.309V408.309C351.373 408.309 349.105 410.578 349.105 413.376V517.911C349.105 521.702 346.031 524.776 342.24 524.776V524.776C338.448 524.776 335.375 521.702 335.375 517.911V101.476C335.375 100.032 334.204 98.861 332.76 98.861V98.861C331.315 98.861 330.145 97.6901 330.145 96.2458V59.0919C330.145 53.5691 325.667 49.0919 320.145 49.0919H265.285C259.762 49.0919 255.285 53.5691 255.285 59.0919V96.5843C255.285 98.0287 254.114 99.1996 252.669 99.1996V99.1996C251.225 99.1996 250.054 100.37 250.054 101.815V282.363C250.054 284.981 247.932 287.103 245.314 287.103H241.59C241.029 287.103 240.574 287.558 240.574 288.119V288.481C240.574 288.842 240.281 289.135 239.92 289.135V289.135C239.559 289.135 239.266 289.427 239.266 289.788V293.559C239.266 293.92 239.559 294.213 239.92 294.213V294.213C240.281 294.213 240.574 294.506 240.574 294.867V295.252C240.574 295.613 240.281 295.906 239.92 295.906V295.906C239.559 295.906 239.266 296.199 239.266 296.56V300.331C239.266 300.692 239.559 300.984 239.92 300.984V300.984C240.281 300.984 240.574 301.277 240.574 301.638V302.023C240.574 302.384 240.281 302.677 239.92 302.677V302.677C239.559 302.677 239.266 302.97 239.266 303.331V307.102C239.266 307.463 239.559 307.756 239.92 307.756V307.756C240.281 307.756 240.574 308.048 240.574 308.409V308.795C240.574 309.156 240.281 309.448 239.92 309.448V309.448C239.559 309.448 239.266 309.741 239.266 310.102V313.873C239.266 314.234 239.559 314.527 239.92 314.527V314.527C240.281 314.527 240.574 314.82 240.574 315.181V315.566C240.574 315.927 240.281 316.22 239.92 316.22V316.22C239.559 316.22 239.266 316.512 239.266 316.874V320.644C239.266 321.006 239.559 321.298 239.92 321.298V321.298C240.281 321.298 240.574 321.591 240.574 321.952V322.337C240.574 322.698 240.281 322.991 239.92 322.991V322.991C239.559 322.991 239.266 323.284 239.266 323.645V327.416C239.266 327.777 239.559 328.07 239.92 328.07V328.07C240.281 328.07 240.574 328.362 240.574 328.723V329.109C240.574 329.47 240.281 329.762 239.92 329.762V329.762C239.559 329.762 239.266 330.055 239.266 330.416V334.187C239.266 334.548 239.559 334.841 239.92 334.841V334.841C240.281 334.841 240.574 335.134 240.574 335.495V335.88C240.574 336.241 240.281 336.534 239.92 336.534V336.534C239.559 336.534 239.266 336.826 239.266 337.187V340.958C239.266 341.319 239.559 341.612 239.92 341.612V341.612C240.281 341.612 240.574 341.905 240.574 342.266V342.651C240.574 343.012 240.281 343.305 239.92 343.305V343.305C239.559 343.305 239.266 343.598 239.266 343.959V347.73C239.266 348.091 239.559 348.383 239.92 348.383V348.383C240.281 348.383 240.574 348.676 240.574 349.037V349.422C240.574 349.784 240.281 350.076 239.92 350.076V350.076C239.559 350.076 239.266 350.369 239.266 350.73V354.501C239.266 354.862 239.559 355.155 239.92 355.155V355.155C240.281 355.155 240.574 355.447 240.574 355.808V356.194C240.574 356.555 240.281 356.848 239.92 356.848V356.848C239.559 356.848 239.266 357.14 239.266 357.501V361.272C239.266 361.633 239.559 361.926 239.92 361.926V361.926C240.281 361.926 240.574 362.219 240.574 362.58V362.965C240.574 363.326 240.281 363.619 239.92 363.619V363.619C239.559 363.619 239.266 363.912 239.266 364.273V368.044C239.266 368.405 239.559 368.697 239.92 368.697V368.697C240.281 368.697 240.574 368.99 240.574 369.351V369.736C240.574 370.097 240.281 370.39 239.92 370.39V370.39C239.559 370.39 239.266 370.683 239.266 371.044V374.815C239.266 375.176 239.559 375.469 239.92 375.469V375.469C240.281 375.469 240.574 375.761 240.574 376.122V376.508C240.574 376.869 240.281 377.161 239.92 377.161V377.161C239.559 377.161 239.266 377.454 239.266 377.815V381.586C239.266 381.947 239.559 382.24 239.92 382.24V382.24C240.281 382.24 240.574 382.533 240.574 382.894V383.279C240.574 383.64 240.281 383.933 239.92 383.933V383.933C239.559 383.933 239.266 384.225 239.266 384.587V388.357C239.266 388.719 239.559 389.011 239.92 389.011V389.011C240.281 389.011 240.574 389.304 240.574 389.665V396.822C240.574 397.183 240.281 397.475 239.92 397.475V397.475C239.559 397.475 239.266 397.768 239.266 398.129V401.9C239.266 402.261 239.559 402.554 239.92 402.554V402.554C240.281 402.554 240.574 402.847 240.574 403.208V403.593C240.574 403.954 240.281 404.247 239.92 404.247V404.247C239.559 404.247 239.266 404.539 239.266 404.9V405.77C239.266 406.612 238.584 407.294 237.743 407.294H227.364C221.841 407.294 217.364 402.817 217.364 397.294V305.906C217.364 300.383 212.887 295.906 207.364 295.906H169.83C164.307 295.906 159.83 300.383 159.83 305.906V359.346C159.83 363.949 156.098 367.682 151.494 367.682H145.189C144.067 367.682 143.158 366.772 143.158 365.65V365.65C143.158 364.528 142.248 363.619 141.126 363.619H139.725C137.83 363.619 136.293 362.082 136.293 360.186V232.933V88.9493C136.293 87.505 135.122 86.3341 133.678 86.3341V86.3341C132.234 86.3341 131.063 85.1632 131.063 83.7189V10C131.063 4.47716 126.586 0 121.063 0H50.5114C44.9886 0 40.5114 4.47715 40.5114 10V83.7189C40.5114 85.1632 39.3406 86.3341 37.8963 86.3341V86.3341C36.452 86.3341 35.2811 87.5049 35.2811 88.9492V447.466C35.2811 450.896 32.5003 453.677 29.07 453.677V453.677C25.6397 453.677 22.859 450.896 22.859 447.466V318.771C22.859 313.248 18.3818 308.771 12.859 308.771H10.9567C5.43381 308.771 0.956653 304.294 0.956653 298.771V248.04C0.956653 246.054 -0.653275 244.444 -2.63922 244.444V244.444C-4.62516 244.444 -6.23509 242.834 -6.23509 240.848V225.327C-6.23509 219.805 -10.7122 215.327 -16.2351 215.327H-98.2278C-103.751 215.327 -108.228 219.805 -108.228 225.327V240.848C-108.228 242.834 -109.838 244.444 -111.824 244.444V244.444C-113.81 244.444 -115.42 246.054 -115.42 248.04V468.392C-115.42 473.915 -119.897 478.392 -125.42 478.392H-128.956C-134.479 478.392 -138.956 473.915 -138.956 468.392V337.054C-138.956 331.531 -143.433 327.054 -148.956 327.054H-215.585C-221.108 327.054 -225.585 331.531 -225.585 337.054V413.049C-225.585 418.285 -229.829 422.529 -235.065 422.529V422.529C-240.3 422.529 -244.545 426.774 -244.545 432.009V509.739C-244.545 512.808 -247.033 515.296 -250.102 515.296V515.296C-253.171 515.296 -255.66 512.808 -255.66 509.739V247.83V243.347C-255.66 242.083 -256.684 241.058 -257.948 241.058H-259.22C-259.781 241.058 -260.236 240.604 -260.236 240.043V240.043C-260.236 239.482 -259.781 239.027 -259.22 239.027H-257.948C-256.684 239.027 -255.66 238.002 -255.66 236.739V234.544C-255.66 233.28 -256.684 232.256 -257.948 232.256H-259.22C-259.781 232.256 -260.236 231.801 -260.236 231.24V231.24C-260.236 230.679 -259.781 230.224 -259.22 230.224H-257.948C-256.684 230.224 -255.66 229.2 -255.66 227.936V225.741C-255.66 224.477 -256.684 223.453 -257.948 223.453H-259.22C-259.781 223.453 -260.236 222.998 -260.236 222.437V222.437C-260.236 221.876 -259.781 221.422 -259.22 221.422H-257.948C-256.684 221.422 -255.66 220.397 -255.66 219.133V216.939C-255.66 215.675 -256.684 214.65 -257.948 214.65H-259.559C-259.933 214.65 -260.236 214.347 -260.236 213.973V213.973C-260.236 213.599 -259.933 213.296 -259.559 213.296H-257.784C-256.43 213.296 -255.333 212.198 -255.333 210.844V208.976C-255.333 207.622 -256.43 206.525 -257.784 206.525H-259.22C-259.781 206.525 -260.236 206.07 -260.236 205.509V205.509C-260.236 204.948 -259.781 204.493 -259.22 204.493H-257.784C-256.43 204.493 -255.333 203.396 -255.333 202.042V200.174C-255.333 198.82 -256.43 197.722 -257.784 197.722H-259.22C-259.781 197.722 -260.236 197.267 -260.236 196.706V196.706C-260.236 196.145 -259.781 195.691 -259.22 195.691H-257.784C-256.43 195.691 -255.333 194.593 -255.333 193.239V191.371C-255.333 190.017 -256.43 188.919 -257.784 188.919H-259.22C-259.781 188.919 -260.236 188.465 -260.236 187.904V187.904C-260.236 187.343 -259.781 186.888 -259.22 186.888H-257.784C-256.43 186.888 -255.333 185.79 -255.333 184.436V166.303C-255.333 163.074 -256.928 160.081 -259.314 157.904C-269.105 148.972 -282.834 129.896 -283.119 103.601V102.924V101.978C-283.119 100.444 -284.363 99.1996 -285.898 99.1996H-286.814C-287.843 99.1996 -288.676 100.033 -288.676 101.062V101.062C-288.676 102.09 -289.51 102.924 -290.538 102.924H-292.599C-294.766 102.924 -296.522 101.167 -296.522 99.0009V45.4845C-296.522 44.6721 -297.181 44.0135 -297.993 44.0135V44.0135C-298.805 44.0135 -299.464 44.6721 -299.464 45.4845V102.445C-299.464 102.896 -299.83 103.262 -300.281 103.262V103.262C-300.733 103.262 -301.099 102.896 -301.099 102.445V101.4C-301.099 100.372 -301.932 99.5381 -302.961 99.5381H-305.121C-306.149 99.5381 -306.983 100.372 -306.983 101.4V101.4C-306.983 102.429 -307.816 103.262 -308.845 103.262H-315.581C-316.61 103.262 -317.444 102.429 -317.444 101.4V101.4C-317.444 100.372 -318.277 99.5381 -319.306 99.5381H-320.386C-322.01 99.5381 -323.328 100.855 -323.328 102.48V103.262C-323.328 129.94 -330.436 149.257 -338.709 158.354C-340.92 160.784 -342.615 163.796 -342.615 167.082V180.63C-342.615 180.721 -342.542 180.794 -342.451 180.794V180.794C-342.361 180.794 -342.288 180.867 -342.288 180.957V184.623C-342.288 186.248 -340.971 187.565 -339.346 187.565H-337.419C-336.858 187.565 -336.404 188.02 -336.404 188.581V188.581C-336.404 189.142 -336.858 189.596 -337.419 189.596H-339.346C-340.971 189.596 -342.288 190.914 -342.288 192.539V193.426C-342.288 195.05 -340.971 196.368 -339.346 196.368H-337.419C-336.858 196.368 -336.404 196.822 -336.404 197.383V197.383C-336.404 197.944 -336.858 198.399 -337.419 198.399H-339.509C-341.224 198.399 -342.615 199.79 -342.615 201.505V202.065C-342.615 203.78 -341.224 205.17 -339.509 205.17H-337.081C-336.707 205.17 -336.404 205.474 -336.404 205.848V205.848C-336.404 206.222 -336.707 206.525 -337.081 206.525H-339.509C-341.224 206.525 -342.615 207.915 -342.615 209.63V210.19C-342.615 211.906 -341.224 213.296 -339.509 213.296H-337.419C-336.858 213.296 -336.404 213.751 -336.404 214.312V214.312C-336.404 214.873 -336.858 215.327 -337.419 215.327H-339.509C-341.224 215.327 -342.615 216.718 -342.615 218.433V218.993C-342.615 220.708 -341.224 222.099 -339.509 222.099H-337.419C-336.858 222.099 -336.404 222.553 -336.404 223.114V223.114C-336.404 223.675 -336.858 224.13 -337.419 224.13H-339.509C-341.224 224.13 -342.615 225.52 -342.615 227.236V227.796C-342.615 229.511 -341.224 230.901 -339.509 230.901H-337.419C-336.858 230.901 -336.404 231.356 -336.404 231.917V231.917C-336.404 232.478 -336.858 232.933 -337.419 232.933H-339.509C-341.224 232.933 -342.615 234.323 -342.615 236.038V236.598C-342.615 238.314 -341.224 239.704 -339.509 239.704H-337.419C-336.858 239.704 -336.404 240.159 -336.404 240.72V240.72C-336.404 241.281 -336.858 241.735 -337.419 241.735H-339.673C-341.478 241.735 -342.942 243.199 -342.942 245.004V378.842C-342.942 383.898 -347.04 387.996 -352.095 387.996V387.996C-357.15 387.996 -361.248 392.094 -361.248 397.149V455.043C-361.248 457.841 -363.517 460.11 -366.315 460.11V460.11C-369.113 460.11 -371.382 462.378 -371.382 465.177V518.341C-371.382 520.408 -373.737 521.475 -375.803 521.393V521.393C-375.932 521.388 -376.023 521.381 -376.15 521.362C-376.274 521.344 -376.398 521.326 -376.523 521.308C-380.328 520.756 -383.15 517.527 -383.15 513.682V391.042C-383.15 387.124 -385.438 383.567 -389.004 381.943L-391.025 381.021C-391.221 380.932 -391.434 380.886 -391.65 380.886V380.886H-392.053C-393.455 380.886 -394.592 379.749 -394.592 378.346V376.951C-394.592 376.319 -395.104 375.807 -395.736 375.807V375.807C-396.368 375.807 -396.88 376.319 -396.88 376.951V377.033C-396.88 377.665 -397.392 378.177 -398.024 378.177H-398.126C-398.702 378.177 -399.168 378.644 -399.168 379.219V379.219C-399.168 379.774 -399.603 380.231 -400.157 380.26L-403.778 380.447C-404.826 380.502 -405.706 379.666 -405.706 378.616V378.616C-405.706 377.93 -406.089 377.302 -406.697 376.987L-407.538 376.551C-408.052 376.285 -408.625 376.155 -409.203 376.173L-428.225 376.761C-429.339 376.796 -430.224 377.708 -430.224 378.823V378.823C-430.224 379.962 -431.147 380.886 -432.287 380.886H-432.512C-433.776 380.886 -434.8 381.91 -434.8 383.174V405.758C-434.8 411.281 -439.278 415.758 -444.8 415.758H-461.086C-466.609 415.758 -471.086 411.281 -471.086 405.758V247.339C-471.086 244.992 -472.989 243.09 -475.336 243.09V243.09C-477.683 243.09 -479.586 241.187 -479.586 238.84V209.415C-479.586 203.892 -484.063 199.415 -489.586 199.415H-503.578C-506.757 199.415 -509.334 196.838 -509.334 193.659V193.659C-509.334 190.48 -511.91 187.904 -515.089 187.904H-518.487C-523.542 187.904 -527.64 183.728 -527.64 178.672V178.672C-527.64 173.53 -531.808 169.283 -536.95 169.283H-591.846C-597.369 169.283 -601.846 173.76 -601.846 179.283V189.415C-601.846 194.938 -606.323 199.415 -611.846 199.415H-629.113C-634.635 199.415 -639.113 203.892 -639.113 209.415V501.233C-639.113 506.756 -643.59 511.233 -649.113 511.233H-649.38C-654.903 511.233 -659.38 515.71 -659.38 521.233V531.208C-659.38 536.444 -663.625 540.688 -668.861 540.688V540.688C-674.096 540.688 -678.341 536.444 -678.341 531.208V456.906C-678.341 451.383 -682.818 446.906 -688.341 446.906H-697.762C-703.284 446.906 -707.762 442.429 -707.762 436.906V416.465C-707.762 416.238 -707.888 416.031 -708.088 415.927V415.927C-708.289 415.823 -708.415 415.616 -708.415 415.39V411.817C-708.415 410.419 -708.868 409.059 -709.705 407.939L-714.271 401.831C-715.563 400.102 -716.261 398.002 -716.261 395.844V389.746C-716.261 388.84 -716.613 387.97 -717.242 387.318V387.318C-717.871 386.667 -718.222 385.797 -718.222 384.891V370.203C-718.222 369.933 -718.442 369.713 -718.713 369.713V369.713C-718.984 369.713 -719.203 369.933 -719.203 370.203V385.126C-719.203 385.881 -719.496 386.606 -720.02 387.149V387.149C-720.545 387.692 -720.838 388.417 -720.838 389.172V396.783C-720.838 398.779 -721.435 400.729 -722.552 402.383L-726.654 408.452C-727.337 409.462 -727.702 410.654 -727.702 411.874V413.889C-727.702 414.635 -728.069 415.334 -728.683 415.758V415.758C-729.297 416.182 -729.664 416.881 -729.664 417.627V418.573C-729.664 419.77 -730.282 420.882 -731.298 421.513L-731.67 421.745C-732.455 422.232 -732.933 423.091 -732.933 424.016V424.016C-732.933 424.98 -733.452 425.87 -734.292 426.344L-734.731 426.592C-735.842 427.22 -736.529 428.397 -736.529 429.673V460.999C-736.529 464.694 -739.716 467.582 -743.394 467.22V467.22V467.22C-746.643 467.22 -749.278 464.585 -749.278 461.336V399.35C-749.278 393.827 -753.755 389.35 -759.278 389.35H-779.486C-785.009 389.35 -789.486 393.827 -789.486 399.35V427.087C-789.486 432.61 -793.964 437.087 -799.486 437.087H-804.985C-810.508 437.087 -814.985 441.565 -814.985 447.087V467.5C-814.985 469.215 -816.375 470.605 -818.09 470.605V470.605C-819.805 470.605 -821.196 471.996 -821.196 473.711V511.829C-821.196 513.183 -822.293 514.28 -823.647 514.28V514.28C-825.002 514.28 -826.099 513.183 -826.099 511.829V495.543C-826.099 493.737 -827.563 492.274 -829.368 492.274V492.274C-831.174 492.274 -832.637 490.81 -832.637 489.005V317.078C-832.637 311.556 -837.114 307.078 -842.637 307.078H-888.537C-929.399 307.078 -962.416 336.872 -962.416 379.193V403.049C-962.416 408.572 -966.893 413.049 -972.416 413.049H-975.819C-987.588 413.049 -997.068 434.04 -997.068 445.552V485.321C-997.068 490.843 -1001.54 495.321 -1007.07 495.321H-1021.72C-1027.24 495.321 -1031.72 490.843 -1031.72 485.321V447.765C-1031.72 442.242 -1036.2 437.765 -1041.72 437.765H-1044.93C-1050.45 437.765 -1054.93 442.242 -1054.93 447.765V534.944C-1054.93 537.743 -1057.2 540.011 -1060 540.011V540.011C-1062.79 540.011 -1065.06 537.743 -1065.06 534.944V485.911C-1065.06 484.376 -1066.31 483.132 -1067.84 483.132V483.132C-1069.38 483.132 -1070.62 481.888 -1070.62 480.354V447.765C-1070.62 442.242 -1075.1 437.765 -1080.62 437.765H-1081.21C-1086.74 437.765 -1091.21 433.287 -1091.21 427.765V392.24C-1091.21 386.717 -1095.69 382.24 -1101.21 382.24H-1126C-1131.52 382.24 -1136 386.717 -1136 392.24V594C-1136 599.523 -1131.52 604 -1126 604H1259C1264.52 604 1269 599.523 1269 594V216.525C1269 211.002 1264.52 206.525 1259 206.525H1241.54ZM874.105 398.322C874.105 398.976 873.575 399.507 872.921 399.507H870.836V399.507C870.656 399.507 870.509 399.36 870.509 399.18V398.322C870.509 397.667 871.04 397.137 871.694 397.137H872.921C873.575 397.137 874.105 397.667 874.105 398.322V398.322ZM874.105 392.566C874.105 393.221 873.575 393.751 872.92 393.751H871.694C871.04 393.751 870.509 393.221 870.509 392.566V392.566C870.509 391.912 871.04 391.381 871.694 391.381H872.92C873.575 391.381 874.105 391.912 874.105 392.566V392.566ZM874.105 386.472C874.105 387.126 873.575 387.657 872.92 387.657H871.694C871.04 387.657 870.509 387.126 870.509 386.472V386.472C870.509 385.818 871.04 385.287 871.694 385.287H872.92C873.575 385.287 874.105 385.818 874.105 386.472V386.472ZM874.105 380.378C874.105 381.032 873.575 381.563 872.921 381.563H871.694C871.04 381.563 870.509 381.032 870.509 380.378V380.378C870.509 379.723 871.04 379.193 871.694 379.193H872.921C873.575 379.193 874.105 379.723 874.105 380.378V380.378ZM874.105 374.284C874.105 374.938 873.575 375.469 872.92 375.469H871.694C871.04 375.469 870.509 374.938 870.509 374.284V374.284C870.509 373.629 871.04 373.099 871.694 373.099H872.92C873.575 373.099 874.105 373.629 874.105 374.284V374.284ZM874.105 368.189C874.105 368.844 873.575 369.374 872.921 369.374H871.694C871.04 369.374 870.509 368.844 870.509 368.189V368.189C870.509 367.535 871.04 367.005 871.694 367.005H872.921C873.575 367.005 874.105 367.535 874.105 368.189V368.189ZM874.105 362.434C874.105 363.088 873.575 363.619 872.92 363.619H871.694C871.04 363.619 870.509 363.088 870.509 362.434V362.434C870.509 361.779 871.04 361.249 871.694 361.249H872.92C873.575 361.249 874.105 361.779 874.105 362.434V362.434Z" fill="url(#paint0_linear_4588_114)"/>
<path d="M1022.59 357.501C965.827 357.501 919.902 458.395 919.902 582.746H1125.41C1125.41 458.269 1079.36 357.501 1022.59 357.501Z" fill="url(#paint1_linear_4588_114)"/>
<path d="M1022.59 357.501C965.827 357.501 919.902 458.395 919.902 582.746H1125.41C1125.41 458.269 1079.36 357.501 1022.59 357.501Z" fill="url(#paint2_linear_4588_114)"/>
<mask id="mask0_4588_114" style="mask-type:alpha" maskUnits="userSpaceOnUse" x="919" y="357" width="207" height="226">
<path d="M1022.59 357.501C965.827 357.501 919.902 458.395 919.902 582.746H1125.41C1125.41 458.269 1079.36 357.501 1022.59 357.501Z" fill="url(#paint3_linear_4588_114)"/>
</mask>
<g mask="url(#mask0_4588_114)">
<path opacity="0.2" d="M936.016 377.899C968.555 362.553 1034.27 337.451 1036.81 359.812C1039.98 387.764 851.89 507.793 916.175 482.307C980.459 456.822 1036.01 386.942 1050.3 411.605C1064.58 436.269 924.905 538.211 971.729 533.279C1018.55 528.346 1076.49 414.894 1094.74 432.981C1113 451.067 974.904 576.851 1005.86 587.538C1036.81 598.226 1121.73 419.827 1155.85 415.716" stroke="url(#paint4_linear_4588_114)" stroke-width="2"/>
</g>
<path opacity="0.3" d="M1112.09 582.746H1125.41C1125.41 458.269 1079.36 357.501 1022.59 357.501C1020.36 357.501 1018.14 357.658 1015.94 357.966C1069.6 365.484 1112.09 463.176 1112.09 582.746Z" fill="#C9D983"/>
<path d="M1136.51 418.573C1094.97 418.573 1061.35 492.406 1061.35 583.403H1211.67C1211.55 492.406 1177.93 418.573 1136.51 418.573Z" fill="url(#paint5_linear_4588_114)"/>
<mask id="mask1_4588_114" style="mask-type:alpha" maskUnits="userSpaceOnUse" x="1061" y="418" width="151" height="166">
<path d="M1136.51 418.573C1094.97 418.573 1061.35 492.406 1061.35 583.403H1211.67C1211.55 492.406 1177.93 418.573 1136.51 418.573Z" fill="url(#paint6_linear_4588_114)"/>
</mask>
<g mask="url(#mask1_4588_114)">
<path opacity="0.2" d="M1112.88 381.142C1083.4 430.873 1036.15 520.132 1083.09 479.321C1141.75 428.306 1197.62 444.669 1174.34 479.321C1151.06 513.972 1083.09 495.684 1089.6 532.26C1094.82 561.521 1170.62 518.143 1207.86 492.796" stroke="url(#paint7_linear_4588_114)" stroke-width="2"/>
</g>
<path opacity="0.3" fill-rule="evenodd" clip-rule="evenodd" d="M1195.81 583.403H1211.67C1211.55 492.406 1177.93 418.573 1136.51 418.573C1133.83 418.573 1131.18 418.881 1128.57 419.481C1166.27 428.179 1195.7 498.281 1195.81 583.403Z" fill="#C9D983"/>
<path d="M840.618 338.457C774.778 338.457 721.374 447.247 721.374 581.433H959.861C959.74 447.247 906.458 338.457 840.618 338.457Z" fill="url(#paint8_linear_4588_114)"/>
<mask id="mask2_4588_114" style="mask-type:alpha" maskUnits="userSpaceOnUse" x="721" y="338" width="239" height="244">
<path d="M840.618 338.457C774.778 338.457 721.374 447.247 721.374 581.433H959.861C959.74 447.247 906.458 338.457 840.618 338.457Z" fill="url(#paint9_linear_4588_114)"/>
</mask>
<g mask="url(#mask2_4588_114)">
<path opacity="0.2" d="M731.522 387.485C744.09 372.129 772.322 344.768 784.711 358.169C800.196 374.921 767.206 432.853 788.75 439.833C810.295 446.813 840.592 337.23 866.849 347.7C893.107 358.169 753.74 527.779 802.215 534.061C850.691 540.343 872.909 388.881 893.78 399.35C914.651 409.82 846.651 491.484 870.215 515.215C893.78 538.947 905.899 427.27 924.75 439.833C943.602 452.397 930.136 515.215 911.958 557.792" stroke="url(#paint10_linear_4588_114)" stroke-width="2"/>
</g>
<path opacity="0.2" d="M933.222 581.433H959.861C959.739 447.247 906.458 338.457 840.617 338.457C836.115 338.457 831.67 338.966 827.297 339.957C886.857 353.456 933.108 456.423 933.222 581.433Z" fill="#C9D983"/>
<path d="M1010.54 432.526H1008.34V580.23H1010.54V432.526Z" fill="#0C5E59"/>
<path d="M1025.52 423.174C1020.78 423.174 1016.38 426.709 1013.29 429.903C1015.39 426.823 1018.25 423.06 1020.45 422.375C1024.3 421.121 1027.39 421.691 1027.39 421.691C1027.39 421.691 1023.86 416.558 1018.58 418.954C1016.27 419.98 1014.28 423.402 1012.85 426.709C1013.62 423.63 1014.28 419.98 1013.73 416.672C1012.41 408.232 1003.38 407.548 1003.38 407.548C1003.38 407.548 1008.45 414.848 1009.33 423.402C1009.44 424.542 1009.55 425.683 1009.66 426.709C1008.89 421.805 1007.02 415.874 1002.39 412.68C990.94 404.81 983.782 418.611 983.782 418.611C983.782 418.611 990.279 414.391 998.868 418.84C1005.7 422.375 1008.56 429.903 1009.44 432.983C1008.34 430.701 1003.6 422.033 996.115 420.778C984.773 418.84 981.91 433.667 981.91 433.667C981.91 433.667 988.407 428.306 996.445 428.648C1002.72 428.991 1007.13 431.614 1009.33 433.667C1008.12 433.325 1005.58 432.754 1002.5 432.64C992.481 432.526 990.389 446.441 990.389 446.441L1009.44 434.351C1008.56 435.948 1006.91 439.37 1006.03 441.651C1004.7 444.845 1005.58 452.03 1005.58 452.03C1005.58 452.03 1008.67 446.555 1009.55 443.02C1010.43 439.598 1010.21 436.062 1010.1 434.351L1022.98 448.837C1022.98 448.837 1026.18 440.054 1016.38 435.834C1015.05 435.264 1013.95 434.807 1013.07 434.465C1015.39 434.807 1018.25 435.834 1021.22 437.773C1026.84 441.537 1030.47 446.783 1030.47 446.783C1030.47 446.783 1033.99 436.176 1025.41 431.842C1022.54 430.473 1019.35 430.587 1016.6 431.272C1018.69 430.017 1021.44 429.105 1024.63 429.561C1032.45 430.587 1034.66 436.29 1034.66 436.29C1034.66 436.29 1036.86 423.174 1025.52 423.174Z" fill="url(#paint11_linear_4588_114)"/>
<path d="M926.521 341.744H922.997V582.975H926.521V341.744Z" fill="#0C5E59"/>
<path d="M949.293 320.951C940.692 320.951 932.582 327.332 926.93 333.203C930.739 327.588 936.023 320.823 940.078 319.419C946.959 317.122 952.734 318.27 952.734 318.27C952.734 318.27 946.221 308.826 936.637 313.293C932.337 315.207 928.773 321.461 926.193 327.46C927.667 321.844 928.65 315.207 927.79 309.081C925.456 293.765 908.868 292.488 908.868 292.488C908.868 292.488 918.083 305.762 919.804 321.461C920.049 323.503 920.172 325.545 920.295 327.46C918.821 318.398 915.38 307.549 907.025 301.806C886.259 287.511 873.234 312.782 873.234 312.782C873.234 312.782 885.153 305.124 900.758 313.293C913.045 319.674 918.329 333.586 920.049 339.074C917.96 334.863 909.482 319.164 895.72 316.739C875.078 313.165 869.794 340.351 869.794 340.351C869.794 340.351 881.59 330.523 896.212 331.161C907.516 331.672 915.749 336.522 919.804 340.351C917.715 339.713 912.923 338.564 907.393 338.564C889.085 338.309 885.276 363.708 885.276 363.708L920.049 341.627C918.575 344.563 915.503 350.689 913.783 355.029C911.448 360.9 912.923 373.918 912.923 373.918C912.923 373.918 918.575 363.963 920.172 357.454C921.77 351.2 921.401 344.69 921.155 341.627L944.747 368.047C944.747 368.047 950.522 351.965 932.828 344.18C930.494 343.159 928.405 342.265 926.807 341.627C931.108 342.265 936.269 344.052 941.552 347.626C951.874 354.518 958.386 363.963 958.386 363.963C958.386 363.963 964.775 344.435 949.047 336.777C943.887 334.224 937.989 334.607 932.951 335.756C936.76 333.459 941.675 331.799 947.696 332.565C961.949 334.352 965.881 344.946 965.881 344.946C965.881 344.946 969.936 320.823 949.293 320.951Z" fill="url(#paint12_linear_4588_114)"/>
<g clip-path="url(#clip0_4588_114)">
<path d="M1231.33 534.179H1109.55V587.845H1231.33V534.179Z" fill="#F9F8EF"/>
<path fill-rule="evenodd" clip-rule="evenodd" d="M1171.12 520.19V520.313C1172.08 517.515 1174.02 513.061 1177.27 506.416C1183.73 493.698 1190.94 483.926 1190.94 483.926C1190.94 483.926 1187.78 494.783 1181.33 507.502C1175.62 518.887 1172.49 523.479 1171.12 524.174V524.823C1172.77 522.563 1176.41 518.686 1182.83 512.62C1193.49 502.693 1204 495.559 1204 495.559C1204 495.559 1197.25 504.71 1186.58 514.792C1180.34 520.618 1176.19 524.113 1173.61 525.906C1176.24 524.215 1180.33 521.897 1186.28 518.824C1199.5 512 1211.51 507.812 1211.51 507.812C1211.51 507.812 1202.2 514.792 1188.99 521.616C1178.92 526.932 1173.47 529.189 1171.12 529.62V530.086C1173.24 528.868 1178.66 526.912 1188.99 523.943C1203.55 519.755 1216.32 517.894 1216.32 517.894C1216.32 517.894 1205.2 523.012 1190.64 527.2C1185.89 528.565 1182.1 529.567 1179.13 530.267C1182.14 529.748 1186.02 529.187 1190.94 528.596C1206.4 526.579 1219.32 526.734 1219.32 526.734C1219.32 526.734 1207.16 530.147 1191.69 532.008C1179.23 533.632 1173.11 533.847 1171.12 533.384V533.714H1169.62V533.492C1169.34 533.575 1168.95 533.645 1168.41 533.714H1164.06C1160.76 533.559 1155.8 533.249 1148.89 532.318C1133.43 530.302 1121.26 527.045 1121.26 527.045C1121.26 527.045 1134.18 526.89 1149.64 528.906C1154.29 529.465 1158.02 529.982 1160.95 530.457C1158.06 529.765 1154.43 528.799 1149.94 527.51C1135.23 523.322 1124.27 518.204 1124.27 518.204C1124.27 518.204 1137.03 520.065 1151.6 524.253C1162.18 527.296 1167.61 529.274 1169.62 530.485V529.938C1167.34 529.543 1161.88 527.238 1151.6 521.926C1138.38 515.102 1129.07 508.122 1129.07 508.122C1129.07 508.122 1141.09 512.31 1154.3 519.134C1159.88 522.018 1163.83 524.236 1166.47 525.896C1163.84 524.021 1159.81 520.599 1154 515.102C1143.34 505.02 1136.58 495.869 1136.58 495.869C1136.58 495.869 1147.09 502.849 1157.75 512.93C1162.34 517.266 1165.51 520.484 1167.55 522.792C1165.79 520.439 1163.07 515.785 1159.1 507.967C1152.65 495.249 1149.49 484.391 1149.49 484.391C1149.49 484.391 1156.85 494.163 1163.16 506.881C1166.8 514.216 1168.79 518.92 1169.62 521.648V520.191C1168.81 518.265 1168.26 512.703 1168.26 501.608C1168.26 487.338 1170.37 475.706 1170.37 475.706C1170.37 475.706 1172.47 487.338 1172.47 501.608C1172.47 512.7 1171.92 518.263 1171.12 520.19ZM1169.62 524.732C1169.39 524.713 1169.1 524.538 1168.73 524.186C1169.08 524.614 1169.37 524.998 1169.62 525.342V524.732ZM1169.62 527.675C1169.25 527.575 1168.77 527.36 1168.18 527.015C1168.75 527.411 1169.23 527.765 1169.62 528.077V527.675ZM1171.12 527.646C1171.53 527.321 1172.04 526.953 1172.64 526.541C1172.02 526.928 1171.51 527.182 1171.12 527.315V527.646ZM1169.62 531.882C1169.13 531.916 1168.45 531.881 1167.54 531.767C1168.5 532.021 1169.18 532.259 1169.62 532.478V531.882ZM1171.12 532.231C1171.68 531.961 1172.58 531.663 1173.86 531.34C1172.64 531.53 1171.74 531.604 1171.12 531.58V532.231ZM1162.26 533.714H1134.18C1138.53 533.404 1143.79 533.249 1149.34 533.249C1154.75 533.249 1159.1 533.404 1162.26 533.714ZM1178.33 533.714H1206.41C1202.05 533.404 1196.79 533.094 1191.24 533.249C1185.68 533.404 1181.48 533.559 1178.33 533.714Z" fill="url(#paint13_linear_4588_114)"/>
</g>
<path d="M850.839 554.595C848.637 544.102 845.003 534.179 840.158 525.054C839.497 523.8 838.726 522.431 837.955 521.176C832.34 511.482 825.402 502.813 817.364 495.285C816.373 494.259 815.272 493.346 814.171 492.434C805.582 485.02 795.781 478.975 785.21 474.641C783.889 474.071 782.567 473.615 781.246 473.158C770.675 469.28 759.223 467.113 747.441 466.885C746.78 466.885 746.009 466.885 745.348 466.885C744.688 466.885 743.917 466.885 743.256 466.885C731.364 467.113 720.022 469.28 709.451 473.158C708.129 473.615 706.808 474.185 705.487 474.641C694.916 478.975 685.115 485.02 676.526 492.434C675.425 493.346 674.324 494.373 673.333 495.285C665.295 502.813 658.247 511.482 652.741 521.176C651.971 522.431 651.31 523.8 650.539 525.054C645.694 534.179 642.06 544.102 639.858 554.595C639.528 556.078 639.307 557.561 638.977 559.043C637.876 565.431 637.325 571.932 637.325 578.547H853.262C853.262 571.932 852.711 565.316 851.61 559.043C851.39 557.561 851.169 556.078 850.839 554.595Z" fill="url(#paint14_linear_4588_114)"/>
<path opacity="0.3" d="M743.258 466.771V578.547H747.442V466.771C746.781 466.771 746.011 466.771 745.35 466.771C744.579 466.771 743.919 466.771 743.258 466.771Z" fill="url(#paint15_linear_4588_114)"/>
<path opacity="0.3" d="M705.487 474.641L732.355 578.661H736.65L709.341 473.158C708.13 473.615 706.809 474.071 705.487 474.641Z" fill="url(#paint16_linear_4588_114)"/>
<path opacity="0.3" d="M673.333 495.285L719.802 578.547H724.537L676.526 492.434C675.425 493.346 674.324 494.373 673.333 495.285Z" fill="url(#paint17_linear_4588_114)"/>
<path opacity="0.3" d="M650.539 525.054L702.293 578.661H708.129L652.631 521.176C651.971 522.431 651.2 523.8 650.539 525.054Z" fill="url(#paint18_linear_4588_114)"/>
<path opacity="0.3" d="M638.978 559.043L671.682 578.547H680.051L639.858 554.481C639.528 556.078 639.308 557.561 638.978 559.043Z" fill="url(#paint19_linear_4588_114)"/>
<path opacity="0.3" d="M753.938 578.661H758.232L785.1 474.641C783.779 474.071 782.457 473.615 781.136 473.158L753.938 578.661Z" fill="url(#paint20_linear_4588_114)"/>
<path opacity="0.3" d="M766.051 578.661H770.896L817.365 495.399C816.374 494.373 815.272 493.461 814.171 492.548L766.051 578.661Z" fill="url(#paint21_linear_4588_114)"/>
<g opacity="0.3">
<path d="M782.457 578.661H788.293L840.047 525.054C839.387 523.8 838.616 522.431 837.845 521.176L782.457 578.661Z" fill="url(#paint22_linear_4588_114)"/>
</g>
<path d="M810.647 578.661H819.016L851.721 559.157C851.5 557.675 851.17 556.192 850.84 554.709L810.647 578.661Z" fill="#084F15"/>
<path d="M931.665 563.378C930.233 556.762 927.921 550.375 924.838 544.558C924.397 543.76 923.957 542.961 923.516 542.049C919.993 535.89 915.588 530.415 910.413 525.625C909.752 525.054 909.091 524.37 908.32 523.8C902.815 519.123 896.648 515.245 889.931 512.508C889.16 512.166 888.279 511.824 887.399 511.596C880.681 509.086 873.414 507.718 865.926 507.604C865.486 507.604 865.045 507.604 864.605 507.604C864.164 507.604 863.724 507.604 863.283 507.604C855.795 507.718 848.528 509.2 841.811 511.596C840.93 511.938 840.159 512.166 839.278 512.508C832.561 515.245 826.395 519.123 820.889 523.8C820.228 524.37 819.567 525.054 818.797 525.625C813.621 530.415 809.217 535.89 805.693 542.049C805.252 542.847 804.812 543.646 804.371 544.558C801.288 550.375 798.976 556.648 797.544 563.378C797.324 564.29 797.214 565.316 796.994 566.229C796.333 570.221 795.893 574.441 795.893 578.661H933.096C933.096 574.441 932.766 570.221 931.995 566.229C932.105 565.202 931.885 564.29 931.665 563.378Z" fill="url(#paint23_linear_4588_114)"/>
<path opacity="0.3" d="M863.282 507.604V578.661H865.925V507.604C865.485 507.604 865.044 507.604 864.604 507.604C864.163 507.604 863.723 507.604 863.282 507.604Z" fill="url(#paint24_linear_4588_114)"/>
<path opacity="0.3" d="M839.387 512.508L856.455 578.547H859.208L841.919 511.482C841.038 511.938 840.158 512.166 839.387 512.508Z" fill="url(#paint25_linear_4588_114)"/>
<path opacity="0.3" d="M818.906 525.739L848.417 578.661H851.5L820.998 523.914C820.228 524.484 819.567 525.054 818.906 525.739Z" fill="url(#paint26_linear_4588_114)"/>
<path opacity="0.3" d="M804.37 544.558L837.295 578.547H841.039L805.802 542.049C805.361 542.961 804.811 543.76 804.37 544.558Z" fill="url(#paint27_linear_4588_114)"/>
<path opacity="0.3" d="M797.103 566.229L817.914 578.661H823.2L797.653 563.377C797.433 564.29 797.213 565.202 797.103 566.229Z" fill="url(#paint28_linear_4588_114)"/>
<path opacity="0.3" d="M870.109 578.661H872.862L889.93 512.622C889.159 512.28 888.278 511.938 887.398 511.71L870.109 578.661Z" fill="url(#paint29_linear_4588_114)"/>
<path opacity="0.3" d="M877.818 578.661H880.902L910.412 525.739C909.752 525.168 909.091 524.484 908.32 523.914L877.818 578.661Z" fill="url(#paint30_linear_4588_114)"/>
<path opacity="0.3" d="M888.278 578.661H892.022L924.947 544.672C924.506 543.874 924.066 543.075 923.625 542.163L888.278 578.661Z" fill="url(#paint31_linear_4588_114)"/>
<path opacity="0.3" d="M906.117 578.661H911.403L932.215 566.229C932.104 565.316 931.884 564.29 931.664 563.377L906.117 578.661Z" fill="url(#paint32_linear_4588_114)"/>
<path d="M1207.18 571H-44.5742V666.58H1207.18V571Z" fill="url(#paint33_linear_4588_114)"/>
<mask id="mask3_4588_114" style="mask-type:alpha" maskUnits="userSpaceOnUse" x="-45" y="571" width="1253" height="96">
<path d="M1207.18 571H-44.5742V666.58H1207.18V571Z" fill="url(#paint34_linear_4588_114)"/>
</mask>
<g mask="url(#mask3_4588_114)">
<path opacity="0.7" fill-rule="evenodd" clip-rule="evenodd" d="M487.451 609.012C479.146 618.067 470.653 624.267 461.559 623.839C459.303 623.733 457.487 623.252 456.127 622.357C454.738 621.444 453.899 620.149 453.538 618.592C452.843 615.589 453.928 611.633 455.877 607.293C459.495 599.237 466.503 589.004 473.288 579.097L473.315 579.057C473.899 578.206 474.48 577.356 475.058 576.511C478.726 571.143 482.243 565.926 485.059 561.228C487.886 556.51 489.954 552.4 490.783 549.231C491.198 547.647 491.276 546.395 491.059 545.459C490.854 544.574 490.38 543.937 489.54 543.51C488.65 543.057 487.282 542.81 485.267 542.929C483.265 543.048 480.713 543.522 477.524 544.422C471.25 546.194 464.254 550.282 456.685 556.123C449.127 561.956 441.059 569.488 432.64 578.079C420.771 590.189 408.256 604.348 395.527 618.749C390.185 624.792 384.806 630.878 379.421 636.873C361.233 657.121 342.986 676.324 326.031 689.146C317.553 695.558 309.349 700.412 301.595 702.992C293.829 705.575 286.459 705.893 279.723 703.146C273.068 700.431 269.733 696.536 269.337 691.644C268.952 686.895 271.384 681.532 275.374 675.923C283.38 664.666 298.255 651.621 312.695 639.095L314.258 637.739L314.341 637.667C321.016 631.879 327.553 626.212 333.265 620.869C339.454 615.081 344.624 609.721 347.936 605.049C349.592 602.713 350.752 600.593 351.355 598.712C351.957 596.837 351.983 595.27 351.475 593.968C350.97 592.673 349.876 591.486 347.924 590.485C345.961 589.478 343.182 588.69 339.428 588.191C327.495 586.607 312.177 590.333 295.102 597.587C278.058 604.828 259.395 615.526 240.828 627.726C203.696 652.124 167.046 682.464 144.647 702.958L143.297 701.482C165.753 680.936 202.487 650.526 239.73 626.054C258.351 613.819 277.124 603.052 294.32 595.746C311.486 588.454 327.214 584.553 339.691 586.209C343.565 586.723 346.592 587.554 348.837 588.705C351.093 589.862 352.609 591.371 353.338 593.241C354.065 595.103 353.951 597.168 353.26 599.323C352.57 601.474 351.286 603.783 349.568 606.206C346.132 611.051 340.838 616.525 334.631 622.33C328.89 627.7 322.325 633.392 315.658 639.173C315.108 639.65 314.557 640.127 314.006 640.605C299.499 653.189 284.84 666.064 277.004 677.082C273.072 682.61 271.006 687.473 271.33 691.483C271.643 695.349 274.225 698.744 280.478 701.294C286.651 703.812 293.51 703.573 300.964 701.094C308.429 698.611 316.434 693.897 324.825 687.551C341.609 674.858 359.741 655.789 377.933 635.537C383.291 629.571 388.655 623.503 393.989 617.468L393.99 617.467L393.991 617.466C406.735 603.048 419.305 588.827 431.211 576.679C439.661 568.057 447.802 560.452 455.463 554.54C463.114 548.636 470.347 544.371 476.981 542.498C480.247 541.575 482.951 541.063 485.149 540.933C487.334 540.803 489.109 541.047 490.447 541.727C491.835 542.433 492.674 543.57 493.007 545.007C493.329 546.392 493.171 548.006 492.718 549.738C491.812 553.201 489.613 557.519 486.774 562.256C483.924 567.012 480.376 572.274 476.709 577.639C476.132 578.485 475.551 579.332 474.97 580.181C468.146 590.147 461.241 600.23 457.702 608.113C455.763 612.43 454.954 615.84 455.487 618.14C455.74 619.234 456.297 620.075 457.225 620.686C458.182 621.315 459.605 621.745 461.653 621.841C469.77 622.223 477.707 616.678 485.977 607.66C492.683 600.349 499.437 590.952 506.534 581.08L506.537 581.076L506.557 581.048C508.17 578.804 509.801 576.535 511.454 574.26C520.353 562.009 529.846 549.626 540.376 540.306C550.911 530.983 562.58 524.64 575.829 524.64V526.64C563.26 526.64 552.046 532.649 541.701 541.804C531.352 550.963 521.971 563.184 513.072 575.435C511.429 577.696 509.803 579.96 508.189 582.205C501.089 592.083 494.246 601.604 487.451 609.012ZM859.551 555.707C857.627 552.585 854.145 550.744 848.119 550.939C842.137 551.133 836.272 553.723 830.469 558.214C824.664 562.707 818.976 569.061 813.368 576.681C802.149 591.925 791.378 612.054 780.708 632.019L780.562 632.294L780.561 632.295C769.964 652.125 759.461 671.778 748.771 686.087C743.4 693.276 737.941 699.175 732.348 703.075C726.745 706.983 720.943 708.926 714.946 708.07C709.031 707.225 705.11 704.655 702.859 700.703C700.642 696.81 700.136 691.732 700.669 686.028C701.736 674.628 707.026 660.115 712.392 645.975C712.824 644.836 713.257 643.699 713.688 642.566L713.688 642.565C718.644 629.549 723.393 617.072 724.881 607.599C725.692 602.435 725.493 598.385 724.026 595.66C722.623 593.055 719.927 591.44 715.087 591.44C710.325 591.44 705.683 593.618 701.058 597.602C696.431 601.588 691.895 607.321 687.369 614.273C679.785 625.924 672.336 640.833 664.589 656.337L664.588 656.338C663.085 659.346 661.571 662.377 660.042 665.41C650.657 684.033 640.739 702.75 629.617 716.813C618.513 730.853 606.031 740.48 591.476 740.48C584.283 740.48 579.573 738.539 577.043 734.808C574.55 731.133 574.393 726.021 575.532 720.202C577.635 709.46 584.352 695.413 591.187 681.118C591.765 679.909 592.344 678.7 592.92 677.49C600.375 661.851 607.523 646.217 608.966 634.112C609.685 628.078 608.963 623.097 606.324 619.445C603.701 615.814 599.03 613.287 591.373 612.495C566.693 609.939 541.645 621.119 520.274 636.291C498.923 651.45 481.393 670.487 471.796 683.377L470.192 682.183C479.893 669.153 497.569 649.958 519.116 634.661C540.644 619.377 566.188 607.876 591.579 610.505C599.569 611.333 604.872 614.02 607.946 618.274C611.004 622.507 611.699 628.081 610.952 634.349C609.461 646.848 602.136 662.804 594.726 678.35C594.161 679.535 593.596 680.716 593.033 681.895C586.15 696.293 579.545 710.11 577.495 720.586C576.384 726.259 576.667 730.691 578.698 733.685C580.691 736.625 584.586 738.48 591.476 738.48C605.085 738.48 617.052 729.477 628.049 715.572C639.028 701.69 648.864 683.147 658.256 664.51C659.776 661.494 661.284 658.476 662.784 655.474C670.529 639.973 678.041 624.938 685.693 613.182C690.263 606.162 694.919 600.251 699.753 596.086C704.59 591.92 709.678 589.44 715.087 589.44C720.418 589.44 723.932 591.268 725.787 594.712C727.577 598.037 727.684 602.644 726.857 607.909C725.334 617.603 720.507 630.279 715.581 643.216C715.141 644.371 714.701 645.528 714.262 646.685C708.87 660.895 703.697 675.137 702.661 686.214C702.143 691.749 702.676 696.34 704.597 699.713C706.483 703.025 709.799 705.315 715.228 706.09C720.575 706.854 725.873 705.152 731.204 701.435C736.546 697.709 741.856 692.002 747.169 684.89C757.768 670.703 768.213 651.157 778.853 631.247L778.854 631.246L778.945 631.076C789.594 611.149 800.435 590.879 811.757 575.495C817.421 567.8 823.235 561.283 829.245 556.632C835.257 551.979 841.518 549.152 848.054 548.941C854.545 548.73 858.838 550.737 861.254 554.658C863.603 558.471 864.025 563.872 863.408 570.111C862.789 576.386 861.096 583.71 859.009 591.518C857.965 595.426 856.818 599.469 855.653 603.571L855.601 603.757L855.598 603.765C854.451 607.808 853.286 611.909 852.181 616.012C847.674 632.751 844.233 649.278 846.864 661.587C848.169 667.692 850.957 672.697 855.816 676.194C860.693 679.704 867.772 681.78 877.816 681.78V683.78C867.518 683.78 859.978 681.654 854.647 677.817C849.299 673.967 846.292 668.48 844.908 662.005C842.161 649.153 845.761 632.166 850.25 615.492C851.359 611.375 852.527 607.261 853.674 603.221L853.675 603.217L853.729 603.025C854.895 598.92 856.037 594.892 857.077 591.001C859.159 583.21 860.815 576.018 861.418 569.915C862.024 563.776 861.541 558.938 859.551 555.707ZM1161.99 650.102C1160.18 643.872 1156.39 637.058 1151.36 629.975C1146.32 622.882 1139.99 615.467 1133.06 608.033C1121.5 595.645 1108.2 583.149 1096.29 571.954L1096.25 571.914C1093.89 569.692 1091.58 567.522 1089.35 565.413C1082.6 559.034 1076.58 553.231 1071.94 548.287C1067.26 543.307 1064.1 539.315 1062.93 536.541C1062.34 535.14 1062.38 534.325 1062.63 533.872C1062.87 533.441 1063.52 532.961 1065.16 532.792C1068.44 532.454 1074.47 533.48 1084.07 536.319L1084.64 534.401C1075.07 531.57 1068.68 530.419 1064.96 530.803C1063.1 530.994 1061.6 531.6 1060.88 532.904C1060.17 534.186 1060.43 535.757 1061.09 537.317C1062.41 540.467 1065.83 544.701 1070.48 549.656C1075.17 554.648 1081.22 560.488 1087.97 566.867C1090.22 568.987 1092.53 571.167 1094.91 573.397L1094.94 573.425L1094.94 573.426C1106.85 584.622 1120.09 597.062 1131.59 609.398C1138.5 616.797 1144.76 624.14 1149.73 631.133C1154.71 638.136 1158.35 644.738 1160.07 650.658C1160.94 653.665 1161.45 656.081 1161.63 657.976C1161.82 659.89 1161.68 661.169 1161.34 661.97C1161.03 662.697 1160.57 663.048 1159.9 663.172C1159.14 663.312 1158.05 663.173 1156.57 662.65C1153.62 661.61 1149.64 659.237 1144.76 655.878C1139.91 652.533 1134.25 648.27 1127.99 643.509C1127.22 642.92 1126.43 642.323 1125.64 641.719C1113.63 632.583 1099.62 621.916 1084.99 612.63C1069.41 602.737 1053.05 594.359 1037.62 591.082C1029.99 589.46 1024.62 588.775 1021.18 588.967C1019.47 589.062 1018.09 589.378 1017.14 590.034C1016.64 590.375 1016.26 590.813 1016.03 591.354C1015.8 591.89 1015.74 592.464 1015.81 593.039C1015.94 594.152 1016.54 595.367 1017.4 596.627C1018.26 597.908 1019.47 599.336 1020.93 600.89C1023.85 603.997 1027.9 607.695 1032.65 611.847C1035.46 614.307 1038.51 616.928 1041.73 619.69L1041.74 619.696C1049.42 626.285 1058.02 633.67 1066.44 641.542C1078.37 652.713 1089.84 664.796 1097.6 676.841C1099.54 679.852 1100.81 682.259 1101.52 684.133C1102.24 686.047 1102.29 687.224 1102.05 687.894C1101.85 688.436 1101.38 688.857 1100.24 689.01C1099.07 689.166 1097.38 688.994 1095.18 688.465C1090.79 687.412 1084.72 685.047 1077.36 681.793C1070.02 678.545 1061.47 674.439 1052.13 669.932L1049.8 668.808L1049.8 668.807C1031.66 660.052 1010.78 649.978 990.329 641.882C969.015 633.445 948.047 627.11 931.04 626.7C924.253 626.537 919.169 627.234 915.591 628.707C911.973 630.196 909.832 632.513 909.142 635.537C908.469 638.487 909.227 641.907 910.91 645.547C912.602 649.206 915.287 653.215 918.658 657.406C932.125 674.149 957.019 694.383 975.808 707.892L976.976 706.268C958.212 692.777 933.505 672.673 920.216 656.152C916.898 652.027 914.322 648.162 912.725 644.708C911.12 641.236 910.562 638.304 911.092 635.982C911.605 633.734 913.186 631.859 916.352 630.556C919.558 629.236 924.322 628.539 930.992 628.7C947.625 629.1 968.317 635.32 989.593 643.741C1009.98 651.81 1030.79 661.857 1048.95 670.619L1051.26 671.733C1060.6 676.237 1069.18 680.358 1076.55 683.622C1083.91 686.879 1090.13 689.311 1094.71 690.41C1096.99 690.956 1098.96 691.198 1100.51 690.992C1102.09 690.781 1103.39 690.062 1103.93 688.57C1104.42 687.205 1104.15 685.454 1103.39 683.429C1102.61 681.365 1101.25 678.822 1099.28 675.759C1091.39 663.504 1079.78 651.287 1067.8 640.082C1059.36 632.179 1050.69 624.745 1043 618.145C1039.79 615.39 1036.75 612.78 1033.97 610.342C1029.23 606.193 1025.24 602.55 1022.38 599.519C1020.96 598.003 1019.84 596.663 1019.05 595.506C1018.26 594.328 1017.87 593.435 1017.8 592.802C1017.76 592.503 1017.8 592.294 1017.86 592.142C1017.93 591.993 1018.05 591.837 1018.27 591.68C1018.76 591.341 1019.7 591.052 1021.29 590.964C1024.44 590.788 1029.59 591.42 1037.21 593.038C1052.29 596.241 1068.4 604.468 1083.92 614.319C1098.47 623.557 1112.42 634.176 1124.44 643.321C1125.23 643.921 1126.01 644.514 1126.78 645.101C1133.04 649.858 1138.73 654.15 1143.63 657.525C1148.51 660.887 1152.68 663.399 1155.9 664.536C1157.5 665.102 1158.99 665.373 1160.26 665.139C1161.61 664.889 1162.62 664.078 1163.18 662.748C1163.71 661.493 1163.83 659.819 1163.62 657.777C1163.42 655.715 1162.88 653.17 1161.99 650.102Z" fill="url(#paint35_linear_4588_114)"/>
<path opacity="0.1" d="M330.333 604.448C201.651 604.448 180.045 648.701 -46.9209 648.701V718.42H1207.19V569.38C931.827 569.38 967.269 631.584 730.08 631.584C492.89 631.584 441.772 604.448 330.333 604.448Z" fill="url(#paint36_linear_4588_114)"/>
</g>
<path d="M32.1518 295.741H37.5068V662.347H32.1518V295.741Z" fill="#0C5E59"/>
<path d="M-2.45535 264.141C10.6161 264.141 22.9406 273.839 31.5305 282.762C25.7417 274.227 17.712 263.947 11.5498 261.813C1.09261 258.322 -7.68392 260.068 -7.68392 260.068C-7.68392 260.068 2.213 245.714 16.7783 252.503C23.3141 255.413 28.7294 264.917 32.6508 274.033C30.41 265.499 28.9161 255.412 30.2233 246.102C33.7713 222.826 58.9806 220.886 58.9806 220.886C58.9806 220.886 44.9754 241.059 42.3611 264.917C41.9876 268.02 41.8008 271.124 41.6141 274.033C43.8549 260.262 49.0836 243.774 61.7816 235.046C93.3398 213.321 113.134 251.727 113.134 251.727C113.134 251.727 95.0204 240.089 71.305 252.503C52.6315 262.201 44.6019 283.344 41.9876 291.684C45.1621 285.284 58.0468 261.425 78.9611 257.74C110.333 252.309 118.362 293.624 118.362 293.624C118.362 293.624 100.436 278.689 78.2142 279.658C61.0346 280.434 48.5233 287.805 42.3611 293.624C45.5356 292.654 52.8182 290.909 61.2213 290.909C89.0448 290.521 94.8336 329.12 94.8336 329.12L41.9876 295.564C44.2284 300.025 48.8969 309.336 51.5111 315.93C55.0591 324.853 52.8182 344.638 52.8182 344.638C52.8182 344.638 44.2285 329.508 41.8009 319.616C39.3733 310.111 39.9336 300.219 40.307 295.564L4.45387 335.715C4.45387 335.715 -4.32266 311.275 22.5672 299.443C26.1152 297.891 29.2896 296.534 31.7172 295.564C25.1814 296.534 17.3385 299.249 9.30894 304.68C-6.37681 315.155 -16.2738 329.508 -16.2738 329.508C-16.2738 329.508 -25.984 299.831 -2.08186 288.193C5.76101 284.314 14.7243 284.896 22.3804 286.641C16.5916 283.15 9.1222 280.628 -0.0278205 281.792C-21.6891 284.508 -27.6646 300.607 -27.6646 300.607C-27.6646 300.607 -33.8269 263.947 -2.45535 264.141Z" fill="url(#paint37_linear_4588_114)"/>
<path d="M184.697 638.59C182.392 627.607 178.589 617.221 173.518 607.671C172.826 606.358 172.019 604.925 171.213 603.612C165.335 593.465 158.074 584.392 149.66 576.513C148.623 575.439 147.47 574.483 146.318 573.528C137.328 565.769 127.07 559.442 116.006 554.905C114.623 554.308 113.24 553.831 111.857 553.353C100.793 549.295 88.8063 547.026 76.4742 546.788C75.7826 546.788 74.9759 546.788 74.2844 546.788C73.5929 546.788 72.7861 546.788 72.0945 546.788C59.6472 547.026 47.776 549.295 36.7117 553.353C35.3287 553.831 33.9457 554.428 32.5626 554.905C21.4983 559.442 11.2407 565.769 2.25094 573.528C1.0984 574.483 -0.0541241 575.558 -1.09141 576.513C-9.50491 584.392 -16.8811 593.465 -22.6438 603.612C-23.4506 604.925 -24.1421 606.358 -24.9489 607.671C-30.02 617.221 -33.8234 627.607 -36.1284 638.59C-36.4742 640.142 -36.7047 641.694 -37.0505 643.246C-38.203 649.931 -38.7793 656.736 -38.7793 663.66H187.233C187.233 656.736 186.656 649.812 185.504 643.246C185.273 641.694 185.043 640.142 184.697 638.59Z" fill="url(#paint38_linear_4588_114)"/>
<path fill-rule="evenodd" clip-rule="evenodd" d="M72.0946 546.668V663.66H76.4742V546.668H74.2845H72.0946ZM32.5621 554.905L60.6839 663.779H65.1788L36.596 553.353C36.2637 553.479 35.9234 553.604 35.5773 553.731C34.6031 554.089 33.5826 554.465 32.5621 554.905ZM47.5457 663.66L-1.09123 576.513L-0.779689 576.226C0.17439 575.346 1.21275 574.389 2.25111 573.528L52.5016 663.66H47.5457ZM-24.9492 607.671L29.22 663.779H35.3284L-22.7593 603.612C-23.1051 604.269 -23.4797 604.955 -23.8543 605.641L-23.8544 605.642L-23.8545 605.642L-23.8546 605.642L-23.8549 605.643L-23.855 605.643C-24.2294 606.329 -24.6037 607.015 -24.9492 607.671ZM-2.82049 663.66L-37.0508 643.246C-36.8599 642.389 -36.7042 641.533 -36.5448 640.656L-36.5448 640.656C-36.4154 639.944 -36.2836 639.219 -36.1287 638.471L5.93877 663.66H-2.82049ZM83.2737 663.779H87.7686L115.891 554.905C114.508 554.308 113.125 553.831 111.742 553.353L111.741 553.353L83.2737 663.779ZM101.023 663.779H95.9516L146.317 573.648C147.47 574.603 148.622 575.558 149.66 576.632L101.023 663.779ZM113.125 663.779H119.233L173.403 607.671C172.711 606.358 171.904 604.925 171.098 603.612L113.125 663.779ZM151.388 663.779H142.629L184.697 638.709C185.042 640.261 185.388 641.813 185.619 643.365L151.388 663.779Z" fill="url(#paint39_linear_4588_114)"/>
<path d="M24.3617 548.941C13.7671 548.941 9.79401 539.339 9.79401 525.965C9.79401 512.59 6.15201 501.616 -8.08456 500.931C-26.6252 500.245 -24.9697 518.763 -24.9697 541.397C-24.9697 570.203 -34.9023 551.685 -48.8077 567.803C-60.7267 581.52 -45.4968 605.869 -40.8617 613.07H19.0643C21.0508 609.298 26.017 600.039 31.6454 588.722C44.2266 564.716 34.9564 548.941 24.3617 548.941Z" fill="url(#paint40_linear_4588_114)"/>
<path opacity="0.2" fill-rule="evenodd" clip-rule="evenodd" d="M-4.11251 553.4H-7.09208V596.408L-19.6093 579.121L-21.9932 580.973L-7.09208 601.552V613.07H-4.11251V580.575L8.51323 564.356L6.19361 562.418L-4.11251 575.658V553.4Z" fill="white"/>
<path d="M36.6122 613.413H-52.1182V664.511H36.6122V613.413Z" fill="white"/>
<defs>
<linearGradient id="paint0_linear_4588_114" x1="796.693" y1="-350" x2="796.693" y2="754" gradientUnits="userSpaceOnUse">
<stop stop-color="#F4A984"/>
<stop offset="1" stop-color="#F4A984" stop-opacity="0"/>
</linearGradient>
<linearGradient id="paint1_linear_4588_114" x1="1022.65" y1="309.562" x2="1022.65" y2="589.313" gradientUnits="userSpaceOnUse">
<stop offset="0.240793" stop-color="#2CA77F"/>
<stop offset="1" stop-color="#1B8877"/>
</linearGradient>
<linearGradient id="paint2_linear_4588_114" x1="1022.65" y1="309.562" x2="1022.65" y2="589.313" gradientUnits="userSpaceOnUse">
<stop offset="0.240793" stop-color="#2CA77F"/>
<stop offset="1" stop-color="#1B8877"/>
</linearGradient>
<linearGradient id="paint3_linear_4588_114" x1="1022.65" y1="309.562" x2="1022.65" y2="589.313" gradientUnits="userSpaceOnUse">
<stop offset="0.240793" stop-color="#2CA77F"/>
<stop offset="1" stop-color="#1B8877"/>
</linearGradient>
<linearGradient id="paint4_linear_4588_114" x1="1029.31" y1="320.726" x2="1029.31" y2="574.866" gradientUnits="userSpaceOnUse">
<stop stop-color="white"/>
<stop offset="1" stop-color="white" stop-opacity="0"/>
</linearGradient>
<linearGradient id="paint5_linear_4588_114" x1="1136.51" y1="389.679" x2="1136.51" y2="583.403" gradientUnits="userSpaceOnUse">
<stop offset="0.422311" stop-color="#2CA77F"/>
<stop offset="1" stop-color="#1B8877"/>
</linearGradient>
<linearGradient id="paint6_linear_4588_114" x1="1136.51" y1="389.679" x2="1136.51" y2="583.403" gradientUnits="userSpaceOnUse">
<stop offset="0.422311" stop-color="#2CA77F"/>
<stop offset="1" stop-color="#1B8877"/>
</linearGradient>
<linearGradient id="paint7_linear_4588_114" x1="1135.56" y1="419.23" x2="1135.56" y2="577.493" gradientUnits="userSpaceOnUse">
<stop stop-color="white"/>
<stop offset="1" stop-color="white" stop-opacity="0"/>
</linearGradient>
<linearGradient id="paint8_linear_4588_114" x1="840.618" y1="338.457" x2="840.618" y2="630.803" gradientUnits="userSpaceOnUse">
<stop offset="0.422311" stop-color="#2CA77F"/>
<stop offset="1" stop-color="#1B8877"/>
</linearGradient>
<linearGradient id="paint9_linear_4588_114" x1="840.618" y1="338.457" x2="840.618" y2="630.803" gradientUnits="userSpaceOnUse">
<stop offset="0.422311" stop-color="#2CA77F"/>
<stop offset="1" stop-color="#1B8877"/>
</linearGradient>
<linearGradient id="paint10_linear_4588_114" x1="832.689" y1="396.897" x2="832.689" y2="604.254" gradientUnits="userSpaceOnUse">
<stop stop-color="white"/>
<stop offset="1" stop-color="white" stop-opacity="0"/>
</linearGradient>
<linearGradient id="paint11_linear_4588_114" x1="1008.37" y1="393.011" x2="1008.37" y2="452.03" gradientUnits="userSpaceOnUse">
<stop stop-color="#D3D86C"/>
<stop offset="1" stop-color="#82A637"/>
</linearGradient>
<linearGradient id="paint12_linear_4588_114" x1="917.999" y1="265.877" x2="917.999" y2="373.918" gradientUnits="userSpaceOnUse">
<stop stop-color="#D3D86C"/>
<stop offset="1" stop-color="#82A637"/>
</linearGradient>
<linearGradient id="paint13_linear_4588_114" x1="1170.37" y1="515.604" x2="1170.37" y2="533.714" gradientUnits="userSpaceOnUse">
<stop stop-color="#D3D86C"/>
<stop offset="1" stop-color="#82A637"/>
</linearGradient>
<linearGradient id="paint14_linear_4588_114" x1="745.293" y1="430.394" x2="745.293" y2="578.547" gradientUnits="userSpaceOnUse">
<stop stop-color="#D3D86C"/>
<stop offset="1" stop-color="#82A637"/>
</linearGradient>
<linearGradient id="paint15_linear_4588_114" x1="745.35" y1="466.771" x2="745.35" y2="578.547" gradientUnits="userSpaceOnUse">
<stop stop-color="#084F15" stop-opacity="0"/>
<stop offset="1" stop-color="#084F15"/>
</linearGradient>
<linearGradient id="paint16_linear_4588_114" x1="721.069" y1="473.158" x2="721.069" y2="578.661" gradientUnits="userSpaceOnUse">
<stop stop-color="#084F15" stop-opacity="0"/>
<stop offset="1" stop-color="#084F15"/>
</linearGradient>
<linearGradient id="paint17_linear_4588_114" x1="698.935" y1="492.434" x2="698.935" y2="578.547" gradientUnits="userSpaceOnUse">
<stop stop-color="#084F15" stop-opacity="0"/>
<stop offset="1" stop-color="#084F15"/>
</linearGradient>
<linearGradient id="paint18_linear_4588_114" x1="679.334" y1="521.176" x2="679.334" y2="578.661" gradientUnits="userSpaceOnUse">
<stop stop-color="#084F15" stop-opacity="0"/>
<stop offset="1" stop-color="#084F15"/>
</linearGradient>
<linearGradient id="paint19_linear_4588_114" x1="659.514" y1="554.481" x2="659.514" y2="578.547" gradientUnits="userSpaceOnUse">
<stop stop-color="#084F15" stop-opacity="0"/>
<stop offset="1" stop-color="#084F15"/>
</linearGradient>
<linearGradient id="paint20_linear_4588_114" x1="769.519" y1="473.158" x2="769.519" y2="578.661" gradientUnits="userSpaceOnUse">
<stop stop-color="#084F15" stop-opacity="0"/>
<stop offset="1" stop-color="#084F15"/>
</linearGradient>
<linearGradient id="paint21_linear_4588_114" x1="791.708" y1="492.548" x2="791.708" y2="578.661" gradientUnits="userSpaceOnUse">
<stop stop-color="#084F15" stop-opacity="0"/>
<stop offset="1" stop-color="#084F15"/>
</linearGradient>
<linearGradient id="paint22_linear_4588_114" x1="811.252" y1="521.176" x2="811.252" y2="578.661" gradientUnits="userSpaceOnUse">
<stop stop-color="#084F15" stop-opacity="0"/>
<stop offset="1" stop-color="#084F15"/>
</linearGradient>
<linearGradient id="paint23_linear_4588_114" x1="864.494" y1="484.382" x2="864.494" y2="578.661" gradientUnits="userSpaceOnUse">
<stop stop-color="#D3D86C"/>
<stop offset="1" stop-color="#82A637"/>
</linearGradient>
<linearGradient id="paint24_linear_4588_114" x1="864.604" y1="507.604" x2="864.604" y2="578.661" gradientUnits="userSpaceOnUse">
<stop stop-color="#084F15" stop-opacity="0"/>
<stop offset="1" stop-color="#084F15"/>
</linearGradient>
<linearGradient id="paint25_linear_4588_114" x1="849.297" y1="511.482" x2="849.297" y2="578.547" gradientUnits="userSpaceOnUse">
<stop stop-color="#084F15" stop-opacity="0"/>
<stop offset="1" stop-color="#084F15"/>
</linearGradient>
<linearGradient id="paint26_linear_4588_114" x1="835.203" y1="523.914" x2="835.203" y2="578.661" gradientUnits="userSpaceOnUse">
<stop stop-color="#084F15" stop-opacity="0"/>
<stop offset="1" stop-color="#084F15"/>
</linearGradient>
<linearGradient id="paint27_linear_4588_114" x1="822.704" y1="542.049" x2="822.704" y2="578.547" gradientUnits="userSpaceOnUse">
<stop stop-color="#084F15" stop-opacity="0"/>
<stop offset="1" stop-color="#084F15"/>
</linearGradient>
<linearGradient id="paint28_linear_4588_114" x1="810.151" y1="563.377" x2="810.151" y2="578.661" gradientUnits="userSpaceOnUse">
<stop stop-color="#084F15" stop-opacity="0"/>
<stop offset="1" stop-color="#084F15"/>
</linearGradient>
<linearGradient id="paint29_linear_4588_114" x1="880.02" y1="511.71" x2="880.02" y2="578.661" gradientUnits="userSpaceOnUse">
<stop stop-color="#084F15" stop-opacity="0"/>
<stop offset="1" stop-color="#084F15"/>
</linearGradient>
<linearGradient id="paint30_linear_4588_114" x1="894.115" y1="523.914" x2="894.115" y2="578.661" gradientUnits="userSpaceOnUse">
<stop stop-color="#084F15" stop-opacity="0"/>
<stop offset="1" stop-color="#084F15"/>
</linearGradient>
<linearGradient id="paint31_linear_4588_114" x1="906.613" y1="542.163" x2="906.613" y2="578.661" gradientUnits="userSpaceOnUse">
<stop stop-color="#084F15" stop-opacity="0"/>
<stop offset="1" stop-color="#084F15"/>
</linearGradient>
<linearGradient id="paint32_linear_4588_114" x1="919.166" y1="563.377" x2="919.166" y2="578.661" gradientUnits="userSpaceOnUse">
<stop stop-color="#084F15" stop-opacity="0"/>
<stop offset="1" stop-color="#084F15"/>
</linearGradient>
<linearGradient id="paint33_linear_4588_114" x1="270.171" y1="290.786" x2="270.171" y2="759.717" gradientUnits="userSpaceOnUse">
<stop offset="0.278352" stop-color="#EEEF99"/>
<stop offset="0.76976" stop-color="#B9D079"/>
</linearGradient>
<linearGradient id="paint34_linear_4588_114" x1="270.171" y1="290.786" x2="270.171" y2="759.717" gradientUnits="userSpaceOnUse">
<stop offset="0.278352" stop-color="#EEEF99"/>
<stop offset="0.76976" stop-color="#B9D079"/>
</linearGradient>
<linearGradient id="paint35_linear_4588_114" x1="653.508" y1="575.737" x2="653.508" y2="788.053" gradientUnits="userSpaceOnUse">
<stop stop-color="white"/>
<stop offset="1" stop-color="white" stop-opacity="0"/>
</linearGradient>
<linearGradient id="paint36_linear_4588_114" x1="580.132" y1="512.774" x2="580.132" y2="722.992" gradientUnits="userSpaceOnUse">
<stop offset="0.164151" stop-color="#82A637"/>
<stop offset="0.890649" stop-color="#1B8877"/>
</linearGradient>
<linearGradient id="paint37_linear_4588_114" x1="45.1037" y1="180.444" x2="45.1037" y2="344.638" gradientUnits="userSpaceOnUse">
<stop stop-color="#D3D86C"/>
<stop offset="1" stop-color="#82A637"/>
</linearGradient>
<linearGradient id="paint38_linear_4588_114" x1="74.2267" y1="508.593" x2="74.2267" y2="663.66" gradientUnits="userSpaceOnUse">
<stop stop-color="#D3D86C"/>
<stop offset="1" stop-color="#82A637"/>
</linearGradient>
<linearGradient id="paint39_linear_4588_114" x1="164.124" y1="546.397" x2="164.124" y2="817.894" gradientUnits="userSpaceOnUse">
<stop stop-color="#084F15" stop-opacity="0"/>
<stop offset="1" stop-color="#084F15"/>
</linearGradient>
<linearGradient id="paint40_linear_4588_114" x1="-7.78009" y1="500.912" x2="-7.78009" y2="635.859" gradientUnits="userSpaceOnUse">
<stop offset="0.422311" stop-color="#2CA77F"/>
<stop offset="1" stop-color="#1B8877"/>
</linearGradient>
<clipPath id="clip0_4588_114">
<rect width="121.781" height="112.294" fill="white" transform="translate(1109.55 475.706)"/>
</clipPath>
</defs>
</svg>
